<svg version="1.2" xmlns="http://www.w3.org/2000/svg" viewBox="0 0 700 530" width="700" height="530"><defs><linearGradient id="P" gradientUnits="userSpaceOnUse"/><linearGradient id="g1" x1="653.4" y1="53.8" x2="653.4" y2="184.4" href="#P"><stop stop-color="#628fc4"/><stop offset="1" stop-color="#414791"/></linearGradient><linearGradient id="g2" x1="650.4" y1="65.4" x2="650.4" y2="181.5" href="#P"><stop stop-color="#fbffff"/><stop offset="1" stop-color="#dee4f3"/></linearGradient><linearGradient id="g3" x1="632.5" y1="132.4" x2="632.5" y2="135.3" href="#P"><stop stop-color="#fbffff"/><stop offset="1" stop-color="#bcc2e6"/></linearGradient><linearGradient id="g4" x1="632.5" y1="139.7" x2="632.5" y2="142.6" href="#P"><stop stop-color="#fbffff"/><stop offset="1" stop-color="#bcc2e6"/></linearGradient><linearGradient id="g5" x1="632.5" y1="147.1" x2="632.5" y2="150" href="#P"><stop stop-color="#fbffff"/><stop offset="1" stop-color="#bcc2e6"/></linearGradient><linearGradient id="g6" x1="632.5" y1="154.5" x2="632.5" y2="157.4" href="#P"><stop stop-color="#fbffff"/><stop offset="1" stop-color="#bcc2e6"/></linearGradient><linearGradient id="g7" x1="632.5" y1="161.8" x2="632.5" y2="164.8" href="#P"><stop stop-color="#fbffff"/><stop offset="1" stop-color="#bcc2e6"/></linearGradient><linearGradient id="g8" x1="632.5" y1="169.2" x2="632.5" y2="172.1" href="#P"><stop stop-color="#fbffff"/><stop offset="1" stop-color="#bcc2e6"/></linearGradient><linearGradient id="g9" x1="595.3" y1="125.8" x2="598.2" y2="155.9" href="#P"><stop stop-color="#597cb7"/><stop offset="1" stop-color="#bcc2e6"/></linearGradient><linearGradient id="g10" x1="570.2" y1="79.9" x2="570.2" y2="78.6" href="#P"><stop stop-color="#fbffff"/><stop offset="1" stop-color="#bcc2e6"/></linearGradient><linearGradient id="g11" x1="570.2" y1="85" x2="570.2" y2="83.7" href="#P"><stop stop-color="#fbffff"/><stop offset="1" stop-color="#bcc2e6"/></linearGradient><linearGradient id="g12" x1="570.2" y1="90.2" x2="570.2" y2="88.9" href="#P"><stop stop-color="#fbffff"/><stop offset="1" stop-color="#bcc2e6"/></linearGradient><linearGradient id="g13" x1="570.2" y1="95.3" x2="570.2" y2="94" href="#P"><stop stop-color="#fbffff"/><stop offset="1" stop-color="#bcc2e6"/></linearGradient><linearGradient id="g14" x1="570.2" y1="100.5" x2="570.2" y2="99.2" href="#P"><stop stop-color="#fbffff"/><stop offset="1" stop-color="#bcc2e6"/></linearGradient><linearGradient id="g15" x1="570.2" y1="105.7" x2="570.2" y2="104.3" href="#P"><stop stop-color="#fbffff"/><stop offset="1" stop-color="#bcc2e6"/></linearGradient><linearGradient id="g16" x1="570.2" y1="110.8" x2="570.2" y2="109.5" href="#P"><stop stop-color="#fbffff"/><stop offset="1" stop-color="#bcc2e6"/></linearGradient><linearGradient id="g17" x1="587.3" y1="93" x2="587.3" y2="113.2" href="#P"><stop stop-color="#fdae6e"/><stop offset="1" stop-color="#fe5a71"/></linearGradient><linearGradient id="g18" x1="598.2" y1="93" x2="598.2" y2="113.2" href="#P"><stop stop-color="#fdae6e"/><stop offset="1" stop-color="#fe5a71"/></linearGradient><linearGradient id="g19" x1="609.1" y1="93" x2="609.1" y2="113.2" href="#P"><stop stop-color="#fdae6e"/><stop offset="1" stop-color="#fe5a71"/></linearGradient><linearGradient id="g20" x1="620" y1="93" x2="620" y2="113.2" href="#P"><stop stop-color="#fdae6e"/><stop offset="1" stop-color="#fe5a71"/></linearGradient><linearGradient id="g21" x1="630.9" y1="93" x2="630.9" y2="113.2" href="#P"><stop stop-color="#fdae6e"/><stop offset="1" stop-color="#fe5a71"/></linearGradient><linearGradient id="g22" x1="501.5" y1="185.2" x2="533.7" y2="185.2" href="#P"><stop stop-color="#a99ecd"/><stop offset="1" stop-color="#8d69a9"/></linearGradient><linearGradient id="g23" x1="501.5" y1="106" x2="552.6" y2="106" href="#P"><stop stop-color="#a99ecd"/><stop offset="1" stop-color="#8d69a9"/></linearGradient><linearGradient id="g24" x1="553.9" y1="190.9" x2="616.9" y2="190.9" href="#P"><stop stop-color="#a99ecd"/><stop offset="1" stop-color="#8d69a9"/></linearGradient><linearGradient id="g25" x1="212.4" y1="107.6" x2="511.4" y2="107.6" href="#P"><stop stop-color="#628fc4"/><stop offset="1" stop-color="#414791"/></linearGradient><linearGradient id="g26" x1="218.2" y1="134.6" x2="505.6" y2="134.6" href="#P"><stop stop-color="#dfe2f3"/><stop offset="1" stop-color="#bcc2e6"/></linearGradient><linearGradient id="g27" x1="252.4" y1="264.5" x2="252.4" y2="269" href="#P"><stop stop-color="#fbffff"/><stop offset="1" stop-color="#bcc2e6"/></linearGradient><linearGradient id="g28" x1="358.5" y1="264.5" x2="358.5" y2="269" href="#P"><stop stop-color="#fbffff"/><stop offset="1" stop-color="#bcc2e6"/></linearGradient><linearGradient id="g29" x1="252.4" y1="274.7" x2="252.4" y2="279.2" href="#P"><stop stop-color="#fbffff"/><stop offset="1" stop-color="#bcc2e6"/></linearGradient><linearGradient id="g30" x1="358.5" y1="274.7" x2="358.5" y2="279.2" href="#P"><stop stop-color="#fbffff"/><stop offset="1" stop-color="#bcc2e6"/></linearGradient><linearGradient id="g31" x1="252.4" y1="284.8" x2="252.4" y2="289.4" href="#P"><stop stop-color="#fbffff"/><stop offset="1" stop-color="#bcc2e6"/></linearGradient><linearGradient id="g32" x1="358.5" y1="284.8" x2="358.5" y2="289.4" href="#P"><stop stop-color="#fbffff"/><stop offset="1" stop-color="#bcc2e6"/></linearGradient><linearGradient id="g33" x1="252.4" y1="295" x2="252.4" y2="299.5" href="#P"><stop stop-color="#fbffff"/><stop offset="1" stop-color="#bcc2e6"/></linearGradient><linearGradient id="g34" x1="358.5" y1="295" x2="358.5" y2="299.5" href="#P"><stop stop-color="#fbffff"/><stop offset="1" stop-color="#bcc2e6"/></linearGradient><linearGradient id="g35" x1="252.4" y1="305.1" x2="252.4" y2="309.7" href="#P"><stop stop-color="#fbffff"/><stop offset="1" stop-color="#bcc2e6"/></linearGradient><linearGradient id="g36" x1="358.5" y1="305.1" x2="358.5" y2="309.7" href="#P"><stop stop-color="#fbffff"/><stop offset="1" stop-color="#bcc2e6"/></linearGradient><linearGradient id="g37" x1="383.9" y1="155.6" x2="383.9" y2="152.8" href="#P"><stop stop-color="#fbffff"/><stop offset="1" stop-color="#bcc2e6"/></linearGradient><linearGradient id="g38" x1="383.9" y1="166.1" x2="383.9" y2="163.4" href="#P"><stop stop-color="#fbffff"/><stop offset="1" stop-color="#bcc2e6"/></linearGradient><linearGradient id="g39" x1="383.9" y1="176.7" x2="383.9" y2="174" href="#P"><stop stop-color="#fbffff"/><stop offset="1" stop-color="#bcc2e6"/></linearGradient><linearGradient id="g40" x1="383.9" y1="187.3" x2="383.9" y2="184.6" href="#P"><stop stop-color="#fbffff"/><stop offset="1" stop-color="#bcc2e6"/></linearGradient><linearGradient id="g41" x1="383.9" y1="197.9" x2="383.9" y2="195.2" href="#P"><stop stop-color="#fbffff"/><stop offset="1" stop-color="#bcc2e6"/></linearGradient><linearGradient id="g42" x1="383.9" y1="208.5" x2="383.9" y2="205.8" href="#P"><stop stop-color="#fbffff"/><stop offset="1" stop-color="#bcc2e6"/></linearGradient><linearGradient id="g43" x1="383.9" y1="219.1" x2="383.9" y2="216.4" href="#P"><stop stop-color="#fbffff"/><stop offset="1" stop-color="#bcc2e6"/></linearGradient><linearGradient id="g44" x1="395.4" y1="159.1" x2="495.8" y2="159.1" href="#P"><stop stop-color="#fdae6e"/><stop offset="1" stop-color="#fe5a71"/></linearGradient><linearGradient id="g45" x1="395.6" y1="186.7" x2="495.9" y2="186.7" href="#P"><stop stop-color="#597cb7"/><stop offset="1" stop-color="#bcc2e6"/></linearGradient><linearGradient id="g46" x1="393.2" y1="256.8" x2="434.2" y2="256.8" href="#P"><stop stop-color="#fbffff"/><stop offset="1" stop-color="#bcc2e6"/></linearGradient><linearGradient id="g47" x1="413.7" y1="262.1" x2="434.2" y2="262.1" href="#P"><stop stop-color="#fdae6e"/><stop offset="1" stop-color="#fe5a71"/></linearGradient><linearGradient id="g48" x1="413.7" y1="276.8" x2="432.3" y2="276.8" href="#P"><stop stop-color="#628fc4"/><stop offset="1" stop-color="#414791"/></linearGradient><linearGradient id="g49" x1="452.1" y1="256.8" x2="493.1" y2="256.8" href="#P"><stop stop-color="#fbffff"/><stop offset="1" stop-color="#bcc2e6"/></linearGradient><linearGradient id="g50" x1="452.1" y1="262.1" x2="464.1" y2="262.1" href="#P"><stop stop-color="#fdae6e"/><stop offset="1" stop-color="#fe5a71"/></linearGradient><linearGradient id="g51" x1="454" y1="282" x2="471.4" y2="282" href="#P"><stop stop-color="#628fc4"/><stop offset="1" stop-color="#414791"/></linearGradient><linearGradient id="g52" x1="443" y1="309.1" x2="443" y2="313.7" href="#P"><stop stop-color="#fdae6e"/><stop offset="1" stop-color="#fe5a71"/></linearGradient><linearGradient id="g53" x1="261.3" y1="178.9" x2="261.3" y2="218.7" href="#P"><stop stop-color="#fdae6e"/><stop offset="1" stop-color="#fe5a71"/></linearGradient><linearGradient id="g54" x1="282.5" y1="178.9" x2="282.5" y2="218.7" href="#P"><stop stop-color="#fdae6e"/><stop offset="1" stop-color="#fe5a71"/></linearGradient><linearGradient id="g55" x1="303.8" y1="178.9" x2="303.8" y2="218.7" href="#P"><stop stop-color="#fdae6e"/><stop offset="1" stop-color="#fe5a71"/></linearGradient><linearGradient id="g56" x1="325" y1="178.9" x2="325" y2="218.7" href="#P"><stop stop-color="#fdae6e"/><stop offset="1" stop-color="#fe5a71"/></linearGradient><linearGradient id="g57" x1="346.2" y1="178.9" x2="346.2" y2="218.7" href="#P"><stop stop-color="#fdae6e"/><stop offset="1" stop-color="#fe5a71"/></linearGradient><linearGradient id="g58" x1="277.2" y1="158.4" x2="277.2" y2="162.3" href="#P"><stop stop-color="#fbffff"/><stop offset="1" stop-color="#bcc2e6"/></linearGradient><linearGradient id="g59" x1="266.9" y1="169.6" x2="266.9" y2="173.5" href="#P"><stop stop-color="#fbffff"/><stop offset="1" stop-color="#bcc2e6"/></linearGradient><linearGradient id="g60" x1="403.6" y1="241.6" x2="403.6" y2="246.1" href="#P"><stop stop-color="#fbffff"/><stop offset="1" stop-color="#bcc2e6"/></linearGradient><linearGradient id="g61" x1="495.5" y1="309.1" x2="495.5" y2="313.7" href="#P"><stop stop-color="#fdae6e"/><stop offset="1" stop-color="#fe5a71"/></linearGradient><linearGradient id="g62" x1="456.1" y1="241.6" x2="456.1" y2="246.1" href="#P"><stop stop-color="#fbffff"/><stop offset="1" stop-color="#bcc2e6"/></linearGradient><linearGradient id="g63" x1="230.7" y1="115.4" x2="237.9" y2="115.4" href="#P"><stop stop-color="#fff"/><stop offset="1" stop-color="#dfe2f3"/></linearGradient><linearGradient id="g64" x1="244.3" y1="115.4" x2="251.6" y2="115.4" href="#P"><stop stop-color="#fff"/><stop offset="1" stop-color="#dfe2f3"/></linearGradient><linearGradient id="g65" x1="258" y1="115.4" x2="265.3" y2="115.4" href="#P"><stop stop-color="#fff"/><stop offset="1" stop-color="#dfe2f3"/></linearGradient><linearGradient id="g66" x1="536.6" y1="16.5" x2="536.6" y2="80.4" href="#P"><stop stop-color="#fdae6e"/><stop offset="1" stop-color="#fe5a71"/></linearGradient><linearGradient id="g67" x1="532.7" y1="20.5" x2="532.7" y2="76.9" href="#P"><stop stop-color="#fbffff"/><stop offset="1" stop-color="#d0d5ee"/></linearGradient><linearGradient id="g68" x1="461.8" y1="44.5" x2="461.8" y2="64.7" href="#P"><stop stop-color="#628fc4"/><stop offset="1" stop-color="#414791"/></linearGradient><linearGradient id="g69" x1="474.1" y1="44.5" x2="474.1" y2="64.7" href="#P"><stop stop-color="#628fc4"/><stop offset="1" stop-color="#414791"/></linearGradient><linearGradient id="g70" x1="486.4" y1="44.5" x2="486.4" y2="64.7" href="#P"><stop stop-color="#628fc4"/><stop offset="1" stop-color="#414791"/></linearGradient><linearGradient id="g71" x1="498.8" y1="44.5" x2="498.8" y2="64.7" href="#P"><stop stop-color="#628fc4"/><stop offset="1" stop-color="#414791"/></linearGradient><linearGradient id="g72" x1="511.1" y1="44.5" x2="511.1" y2="64.7" href="#P"><stop stop-color="#628fc4"/><stop offset="1" stop-color="#414791"/></linearGradient><linearGradient id="g73" x1="356" y1="20.5" x2="356" y2="76.9" href="#P"><stop stop-color="#f6fbfd"/><stop offset=".7" stop-color="#dbe0f2"/></linearGradient><linearGradient id="g74" x1="299.5" y1="31" x2="299.5" y2="34.4" href="#P"><stop stop-color="#fbffff"/><stop offset="1" stop-color="#bcc2e6"/></linearGradient><linearGradient id="g75" x1="343.5" y1="39.8" x2="343.5" y2="43.2" href="#P"><stop stop-color="#fbffff"/><stop offset="1" stop-color="#bcc2e6"/></linearGradient><linearGradient id="g76" x1="343.5" y1="48.6" x2="343.5" y2="52" href="#P"><stop stop-color="#fbffff"/><stop offset="1" stop-color="#bcc2e6"/></linearGradient><linearGradient id="g77" x1="343.5" y1="57.4" x2="343.5" y2="60.7" href="#P"><stop stop-color="#fbffff"/><stop offset="1" stop-color="#bcc2e6"/></linearGradient><linearGradient id="g78" x1="343.5" y1="66.2" x2="343.5" y2="69.5" href="#P"><stop stop-color="#fbffff"/><stop offset="1" stop-color="#bcc2e6"/></linearGradient><linearGradient id="g79" x1="203.4" y1="133.1" x2="203.4" y2="322.3" href="#P"><stop stop-color="#fdae6e"/><stop offset="1" stop-color="#fe5a71"/></linearGradient><linearGradient id="g80" x1="200.5" y1="144.6" x2="200.5" y2="319.4" href="#P"><stop stop-color="#fbffff"/><stop offset="1" stop-color="#dee4f3"/></linearGradient><linearGradient id="g81" x1="182.5" y1="158.7" x2="182.5" y2="161.6" href="#P"><stop stop-color="#fbffff"/><stop offset="1" stop-color="#bcc2e6"/></linearGradient><linearGradient id="g82" x1="182.5" y1="166.1" x2="182.5" y2="169" href="#P"><stop stop-color="#fbffff"/><stop offset="1" stop-color="#bcc2e6"/></linearGradient><linearGradient id="g83" x1="182.5" y1="173.5" x2="182.5" y2="176.4" href="#P"><stop stop-color="#fbffff"/><stop offset="1" stop-color="#bcc2e6"/></linearGradient><linearGradient id="g84" x1="182.5" y1="180.9" x2="182.5" y2="183.8" href="#P"><stop stop-color="#fbffff"/><stop offset="1" stop-color="#bcc2e6"/></linearGradient><linearGradient id="g85" x1="182.5" y1="188.2" x2="182.5" y2="191.1" href="#P"><stop stop-color="#fbffff"/><stop offset="1" stop-color="#bcc2e6"/></linearGradient><linearGradient id="g86" x1="182.5" y1="195.6" x2="182.5" y2="198.5" href="#P"><stop stop-color="#fbffff"/><stop offset="1" stop-color="#bcc2e6"/></linearGradient><linearGradient id="g87" x1="145.3" y1="152.1" x2="148.2" y2="182.3" href="#P"><stop stop-color="#fdae6e"/><stop offset="1" stop-color="#fe5a71"/></linearGradient><linearGradient id="g88" x1="182.5" y1="273.4" x2="182.5" y2="276.3" href="#P"><stop stop-color="#fbffff"/><stop offset="1" stop-color="#bcc2e6"/></linearGradient><linearGradient id="g89" x1="182.5" y1="280.7" x2="182.5" y2="283.6" href="#P"><stop stop-color="#fbffff"/><stop offset="1" stop-color="#bcc2e6"/></linearGradient><linearGradient id="g90" x1="182.5" y1="288.1" x2="182.5" y2="291" href="#P"><stop stop-color="#fbffff"/><stop offset="1" stop-color="#bcc2e6"/></linearGradient><linearGradient id="g91" x1="182.5" y1="295.5" x2="182.5" y2="298.4" href="#P"><stop stop-color="#fbffff"/><stop offset="1" stop-color="#bcc2e6"/></linearGradient><linearGradient id="g92" x1="182.5" y1="302.8" x2="182.5" y2="305.8" href="#P"><stop stop-color="#fbffff"/><stop offset="1" stop-color="#bcc2e6"/></linearGradient><linearGradient id="g93" x1="182.5" y1="310.2" x2="182.5" y2="313.1" href="#P"><stop stop-color="#fbffff"/><stop offset="1" stop-color="#bcc2e6"/></linearGradient><linearGradient id="g94" x1="145.3" y1="266.8" x2="148.2" y2="296.9" href="#P"><stop stop-color="#628fc4"/><stop offset="1" stop-color="#414791"/></linearGradient><linearGradient id="g95" x1="154.4" y1="228.5" x2="141.7" y2="248.1" href="#P"><stop stop-color="#fbffff"/><stop offset="1" stop-color="#bcc2e6"/></linearGradient><linearGradient id="g96" x1="153.3" y1="238.6" x2="133.7" y2="239.8" href="#P"><stop stop-color="#fdae6e"/><stop offset="1" stop-color="#fe5a71"/></linearGradient><linearGradient id="g97" x1="134.1" y1="232.4" x2="146.5" y2="232.4" href="#P"><stop stop-color="#628fc4"/><stop offset="1" stop-color="#414791"/></linearGradient><linearGradient id="g98" x1="181.9" y1="220.8" x2="181.9" y2="223.4" href="#P"><stop stop-color="#fbffff"/><stop offset="1" stop-color="#bcc2e6"/></linearGradient><linearGradient id="g99" x1="185.5" y1="227.1" x2="185.5" y2="229.7" href="#P"><stop stop-color="#fbffff"/><stop offset="1" stop-color="#bcc2e6"/></linearGradient><linearGradient id="g100" x1="185.5" y1="233.4" x2="185.5" y2="236" href="#P"><stop stop-color="#fbffff"/><stop offset="1" stop-color="#bcc2e6"/></linearGradient><linearGradient id="g101" x1="185.5" y1="239.7" x2="185.5" y2="242.3" href="#P"><stop stop-color="#fbffff"/><stop offset="1" stop-color="#bcc2e6"/></linearGradient><linearGradient id="g102" x1="171.3" y1="48.3" x2="255.5" y2="48.3" href="#P"><stop stop-color="#a99ecd"/><stop offset="1" stop-color="#8d69a9"/></linearGradient><linearGradient id="g103" x1="355.5" y1="41.2" x2="476.2" y2="41.2" href="#P"><stop stop-color="#a99ecd"/><stop offset="1" stop-color="#8d69a9"/></linearGradient><linearGradient id="g104" x1="689.1" y1="228.7" x2="689.1" y2="292.7" href="#P"><stop stop-color="#dfe2f3"/><stop offset="1" stop-color="#bcc2e6"/></linearGradient><linearGradient id="g105" x1="685.2" y1="232.7" x2="685.2" y2="289.2" href="#P"><stop stop-color="#f6fbfd"/><stop offset=".7" stop-color="#dbe0f2"/></linearGradient><linearGradient id="g106" x1="618.6" y1="243.3" x2="618.6" y2="246.6" href="#P"><stop stop-color="#fbffff"/><stop offset="1" stop-color="#bcc2e6"/></linearGradient><linearGradient id="g107" x1="662.6" y1="252.1" x2="662.6" y2="255.4" href="#P"><stop stop-color="#fbffff"/><stop offset="1" stop-color="#bcc2e6"/></linearGradient><linearGradient id="g108" x1="662.6" y1="260.8" x2="662.6" y2="264.2" href="#P"><stop stop-color="#fbffff"/><stop offset="1" stop-color="#bcc2e6"/></linearGradient><linearGradient id="g109" x1="662.6" y1="269.6" x2="662.6" y2="273" href="#P"><stop stop-color="#fbffff"/><stop offset="1" stop-color="#bcc2e6"/></linearGradient><linearGradient id="g110" x1="662.6" y1="278.4" x2="662.6" y2="281.8" href="#P"><stop stop-color="#fbffff"/><stop offset="1" stop-color="#bcc2e6"/></linearGradient><linearGradient id="g111" x1="567.3" y1="245" x2="567.3" y2="278.1" href="#P"><stop stop-color="#fdae6e"/><stop offset="1" stop-color="#fe5a71"/></linearGradient><linearGradient id="g112" x1="79" y1="480.8" x2="120.1" y2="480.8" href="#P"><stop stop-color="#1b1b35"/><stop offset="1" stop-color="#33366e"/></linearGradient><linearGradient id="g113" x1="43.8" y1="480.8" x2="66.3" y2="480.8" href="#P"><stop stop-color="#1b1b35"/><stop offset="1" stop-color="#33366e"/></linearGradient><linearGradient id="g114" x1="23.1" y1="345.7" x2="38.4" y2="345.7" href="#P"><stop stop-color="#e58a8a"/><stop offset="1" stop-color="#ffc0c0"/></linearGradient><linearGradient id="g115" x1="38.9" y1="348" x2="71" y2="348" href="#P"><stop stop-color="#1b1b35"/><stop offset="1" stop-color="#33366e"/></linearGradient><linearGradient id="g116" x1="13.6" y1="302.5" x2="28.5" y2="299.8" href="#P"><stop stop-color="#fdae6e"/><stop offset="1" stop-color="#fe5a71"/></linearGradient><linearGradient id="g117" x1="43.2" y1="240.8" x2="63.7" y2="253.2" href="#P"><stop stop-color="#fdae6e"/><stop offset="1" stop-color="#fe5a71"/></linearGradient><linearGradient id="g118" x1="124.7" y1="228.7" x2="148" y2="228.7" href="#P"><stop stop-color="#fdae6e"/><stop offset="1" stop-color="#fe5a71"/></linearGradient><linearGradient id="g119" x1="131.4" y1="197.9" x2="147.6" y2="197.9" href="#P"><stop stop-color="#e58a8a"/><stop offset="1" stop-color="#ffc0c0"/></linearGradient><linearGradient id="g120" x1="61" y1="194.7" x2="94.5" y2="194.7" href="#P"><stop stop-color="#e58a8a"/><stop offset="1" stop-color="#ffc0c0"/></linearGradient><linearGradient id="g121" x1="57" y1="187.4" x2="95.2" y2="187.4" href="#P"><stop stop-color="#1b1b35"/><stop offset="1" stop-color="#33366e"/></linearGradient><linearGradient id="g122" x1="38.1" y1="230.9" x2="106.1" y2="230.9" href="#P"><stop stop-color="#fdae6e"/><stop offset="1" stop-color="#fe5a71"/></linearGradient><linearGradient id="g123" x1="99.5" y1="246.7" x2="136.9" y2="246.7" href="#P"><stop stop-color="#fdae6e"/><stop offset="1" stop-color="#fe5a71"/></linearGradient><linearGradient id="g124" x1="60.3" y1="349.7" x2="103.3" y2="349.7" href="#P"><stop stop-color="#1b1b35"/><stop offset="1" stop-color="#33366e"/></linearGradient><linearGradient id="g125" x1="595.1" y1="240.6" x2="616.2" y2="241.8" href="#P"><stop stop-color="#fbffff"/><stop offset="1" stop-color="#bcc2e6"/></linearGradient><linearGradient id="g126" x1="627.4" y1="480.1" x2="585.8" y2="480.1" href="#P"><stop stop-color="#1b1b35"/><stop offset="1" stop-color="#33366e"/></linearGradient><linearGradient id="g127" x1="662.9" y1="480.1" x2="640.2" y2="480.1" href="#P"><stop stop-color="#1b1b35"/><stop offset="1" stop-color="#33366e"/></linearGradient><linearGradient id="g128" x1="638.2" y1="340.7" x2="656.7" y2="340.4" href="#P"><stop stop-color="#1b1b35"/><stop offset="1" stop-color="#33366e"/></linearGradient><linearGradient id="g129" x1="606.6" y1="341.9" x2="629.7" y2="342.3" href="#P"><stop stop-color="#1b1b35"/><stop offset="1" stop-color="#33366e"/></linearGradient><linearGradient id="g130" x1="667.7" y1="238.2" x2="678.6" y2="238.2" href="#P"><stop stop-color="#fbffff"/><stop offset="1" stop-color="#bcc2e6"/></linearGradient><linearGradient id="g131" x1="656.1" y1="193.3" x2="624.3" y2="193.3" href="#P"><stop stop-color="#e58a8a"/><stop offset="1" stop-color="#ffc0c0"/></linearGradient><linearGradient id="g132" x1="659.9" y1="186.3" x2="623.6" y2="186.3" href="#P"><stop stop-color="#1b1b35"/><stop offset="1" stop-color="#33366e"/></linearGradient><linearGradient id="g133" x1="610.6" y1="223.2" x2="673.4" y2="230.9" href="#P"><stop stop-color="#fbffff"/><stop offset="1" stop-color="#bcc2e6"/></linearGradient><linearGradient id="g134" x1="323.7" y1="271.6" x2="429.3" y2="271.6" href="#P"><stop stop-color="#628fc4"/><stop offset="1" stop-color="#414791"/></linearGradient><linearGradient id="g135" x1="336.1" y1="285.6" x2="336.1" y2="283.7" href="#P"><stop stop-color="#fbffff"/><stop offset="1" stop-color="#bcc2e6"/></linearGradient><linearGradient id="g136" x1="336.1" y1="293" x2="336.1" y2="291.1" href="#P"><stop stop-color="#fbffff"/><stop offset="1" stop-color="#bcc2e6"/></linearGradient><linearGradient id="g137" x1="336.1" y1="300.4" x2="336.1" y2="298.5" href="#P"><stop stop-color="#fbffff"/><stop offset="1" stop-color="#bcc2e6"/></linearGradient><linearGradient id="g138" x1="336.1" y1="307.8" x2="336.1" y2="305.9" href="#P"><stop stop-color="#fbffff"/><stop offset="1" stop-color="#bcc2e6"/></linearGradient><linearGradient id="g139" x1="336.1" y1="315.2" x2="336.1" y2="313.3" href="#P"><stop stop-color="#fbffff"/><stop offset="1" stop-color="#bcc2e6"/></linearGradient><linearGradient id="g140" x1="336.1" y1="322.6" x2="336.1" y2="320.7" href="#P"><stop stop-color="#fbffff"/><stop offset="1" stop-color="#bcc2e6"/></linearGradient><linearGradient id="g141" x1="336.1" y1="330" x2="336.1" y2="328.1" href="#P"><stop stop-color="#fbffff"/><stop offset="1" stop-color="#bcc2e6"/></linearGradient><linearGradient id="g142" x1="344.4" y1="287.9" x2="414.6" y2="287.9" href="#P"><stop stop-color="#fdae6e"/><stop offset="1" stop-color="#fe5a71"/></linearGradient><linearGradient id="g143" x1="351.9" y1="465.3" x2="371" y2="461.4" href="#P"><stop stop-color="#1b1b35"/><stop offset="1" stop-color="#33366e"/></linearGradient><linearGradient id="g144" x1="372.6" y1="468.8" x2="400.5" y2="463" href="#P"><stop stop-color="#1b1b35"/><stop offset="1" stop-color="#33366e"/></linearGradient><linearGradient id="g145" x1="345.4" y1="399.8" x2="369.4" y2="402.8" href="#P"><stop stop-color="#1b1b35"/><stop offset="1" stop-color="#33366e"/></linearGradient><linearGradient id="g146" x1="251.4" y1="240.9" x2="283.1" y2="240.9" href="#P"><stop stop-color="#e58a8a"/><stop offset="1" stop-color="#ffc0c0"/></linearGradient><linearGradient id="g147" x1="247.6" y1="233.9" x2="283.8" y2="233.9" href="#P"><stop stop-color="#1b1b35"/><stop offset="1" stop-color="#33366e"/></linearGradient><linearGradient id="g148" x1="490.5" y1="342.4" x2="490.5" y2="484.9" href="#P"><stop stop-color="#f1f2fa"/><stop offset="1" stop-color="#bcc2e6"/></linearGradient><linearGradient id="g149" x1="482.2" y1="364.6" x2="482.2" y2="469.8" href="#P"><stop stop-color="#628fc4"/><stop offset="1" stop-color="#414791"/></linearGradient><linearGradient id="g150" x1="257.7" y1="379.8" x2="267.9" y2="345.6" href="#P"><stop stop-color="#1b1b35"/><stop offset="1" stop-color="#33366e"/></linearGradient><linearGradient id="g151" x1="357.5" y1="387.4" x2="384.6" y2="381.9" href="#P"><stop stop-color="#1b1b35"/><stop offset="1" stop-color="#33366e"/></linearGradient><linearGradient id="g152" x1="226.9" y1="292.9" x2="258.6" y2="292.9" href="#P"><stop stop-color="#fdae6e"/><stop offset="1" stop-color="#fe5a71"/></linearGradient><linearGradient id="g153" x1="308.4" y1="387.2" x2="245.2" y2="394.3" href="#P"><stop stop-color="#f6fbfd"/><stop offset=".7" stop-color="#dbe0f2"/></linearGradient><linearGradient id="g154" x1="366.2" y1="336.2" x2="367.5" y2="349.4" href="#P"><stop stop-color="#fdae6e"/><stop offset="1" stop-color="#fe5a71"/></linearGradient><linearGradient id="g155" x1="341.8" y1="345.8" x2="326.8" y2="355.5" href="#P"><stop stop-color="#fdae6e"/><stop offset="1" stop-color="#fe5a71"/></linearGradient><linearGradient id="g156" x1="363.9" y1="337.2" x2="389.7" y2="337.2" href="#P"><stop stop-color="#e58a8a"/><stop offset="1" stop-color="#ffc0c0"/></linearGradient><linearGradient id="g157" x1="242" y1="482.1" x2="339.1" y2="482.1" href="#P"><stop stop-color="#fbffff"/><stop offset="1" stop-color="#dee4f3"/></linearGradient><linearGradient id="g158" x1="284.7" y1="427.9" x2="296.5" y2="427.9" href="#P"><stop stop-color="#fbffff"/><stop offset="1" stop-color="#dee4f3"/></linearGradient><linearGradient id="g159" x1="276.3" y1="420.1" x2="303.2" y2="420.1" href="#P"><stop stop-color="#acbdda"/><stop offset="1" stop-color="#bcc2e6"/></linearGradient><linearGradient id="g160" x1="279.8" y1="476.5" x2="301.4" y2="476.5" href="#P"><stop stop-color="#acbdda"/><stop offset="1" stop-color="#bcc2e6"/></linearGradient><linearGradient id="g161" x1="321.1" y1="305.6" x2="321.1" y2="429" href="#P"><stop stop-color="#f1f2fa"/><stop offset="1" stop-color="#bcc2e6"/></linearGradient><linearGradient id="g162" x1="315.2" y1="290.1" x2="354.4" y2="377.8" href="#P"><stop stop-color="#fbffff"/><stop offset="1" stop-color="#dee4f3"/></linearGradient></defs><style>.A{opacity:0;fill:#030611}.B{opacity:.1;fill:#030611}.C{opacity:.2;fill:#030611}.D{opacity:.3;fill:#030611}.E{opacity:.4;fill:#030611}.F{opacity:.5;fill:#030611}.G{opacity:.6;fill:#030611}.H{opacity:.7;fill:#030611}.I{opacity:.8;fill:#030611}.J{opacity:.9;fill:#030611}.K{opacity:1;fill:#030611}.L{fill:#030611}.M{fill:url(#g1)}.N{fill:url(#g2)}.O{fill:url(#g3)}.P{fill:url(#g4)}.Q{fill:url(#g5)}.R{fill:url(#g6)}.S{fill:url(#g7)}.T{fill:url(#g8)}.U{fill:url(#g9)}.V{fill:#c4c0c0}.W{fill:#d2d2d8}.X{fill:url(#g10)}.Y{fill:url(#g11)}.Z{fill:url(#g12)}.a{fill:url(#g13)}.b{fill:url(#g14)}.c{fill:url(#g15)}.d{fill:url(#g16)}.e{fill:url(#g17)}.f{fill:url(#g18)}.g{fill:url(#g19)}.h{fill:url(#g20)}.i{fill:url(#g21)}.j{fill:url(#g22)}.k{fill:url(#g23)}.l{fill:url(#g24)}.m{fill:url(#g25)}.n{fill:url(#g26)}.o{fill:#fff}.p{fill:url(#g27)}.q{fill:url(#g28)}.r{fill:url(#g29)}.s{fill:url(#g30)}.t{fill:url(#g31)}.u{fill:url(#g32)}.v{fill:url(#g33)}.w{fill:url(#g34)}.x{fill:url(#g35)}.y{fill:url(#g36)}.z{fill:url(#g37)}.{{fill:url(#g38)}.|{fill:url(#g39)}.}{fill:url(#g40)}.~{fill:url(#g41)}.{fill:url(#g42)}.{fill:url(#g43)}.{fill:url(#g44)}.{fill:url(#g45)}.{fill:url(#g46)}.{fill:url(#g47)}.{fill:url(#g48)}.{fill:url(#g49)}.{fill:url(#g50)}.{fill:url(#g51)}.{fill:url(#g52)}.{fill:url(#g53)}.{fill:url(#g54)}.{fill:url(#g55)}.{fill:url(#g56)}.{fill:url(#g57)}.{fill:url(#g58)}.{fill:url(#g59)}.{fill:url(#g60)}.{fill:url(#g61)}.{fill:url(#g62)}.{fill:url(#g63)}.{fill:url(#g64)}.{fill:url(#g65)}.{fill:url(#g66)}.{fill:url(#g67)}.{fill:url(#g68)}.{fill:url(#g69)}.{fill:url(#g70)}.{fill:url(#g71)}.{fill:url(#g72)}.{fill:url(#g73)}.{fill:url(#g74)}. {fill:url(#g75)}.¡{fill:url(#g76)}.¢{fill:url(#g77)}.£{fill:url(#g78)}.¤{fill:url(#g79)}.¥{fill:url(#g80)}.¦{fill:url(#g81)}.§{fill:url(#g82)}.¨{fill:url(#g83)}.©{fill:url(#g84)}.ª{fill:url(#g85)}.«{fill:url(#g86)}.¬{fill:url(#g87)}.­{fill:url(#g88)}.®{fill:url(#g89)}.¯{fill:url(#g90)}.°{fill:url(#g91)}.±{fill:url(#g92)}.²{fill:url(#g93)}.³{fill:url(#g94)}.´{fill:url(#g95)}.µ{fill:url(#g96)}.¶{fill:url(#g97)}.·{fill:url(#g98)}.¸{fill:url(#g99)}.¹{fill:url(#g100)}.º{fill:url(#g101)}.»{fill:url(#g102)}.¼{fill:url(#g103)}.½{fill:url(#g104)}.¾{fill:url(#g105)}.¿{fill:url(#g106)}.À{fill:url(#g107)}.Á{fill:url(#g108)}.Â{fill:url(#g109)}.Ã{fill:url(#g110)}.Ä{fill:url(#g111)}.Å{fill:url(#g112)}.Æ{fill:url(#g113)}.Ç{fill:url(#g114)}.È{fill:url(#g115)}.É{fill:url(#g116)}.Ê{fill:url(#g117)}.Ë{fill:url(#g118)}.Ì{fill:url(#g119)}.Í{fill:url(#g120)}.Î{fill:url(#g121)}.Ï{fill:url(#g122)}.Ð{fill:url(#g123)}.Ñ{fill:url(#g124)}.Ò{fill:url(#g125)}.Ó{fill:url(#g126)}.Ô{fill:url(#g127)}.Õ{fill:url(#g128)}.Ö{fill:url(#g129)}.×{fill:url(#g130)}.Ø{fill:url(#g131)}.Ù{fill:url(#g132)}.Ú{fill:url(#g133)}.Û{fill:url(#g134)}.Ü{fill:url(#g135)}.Ý{fill:url(#g136)}.Þ{fill:url(#g137)}.ß{fill:url(#g138)}.à{fill:url(#g139)}.á{fill:url(#g140)}.â{fill:url(#g141)}.ã{fill:url(#g142)}.ä{fill:url(#g143)}.å{fill:url(#g144)}.æ{fill:url(#g145)}.ç{fill:url(#g146)}.è{fill:url(#g147)}.é{fill:url(#g148)}.ê{fill:url(#g149)}.ë{fill:url(#g150)}.ì{fill:url(#g151)}.í{fill:url(#g152)}.î{fill:url(#g153)}.ï{fill:url(#g154)}.ð{fill:url(#g155)}.ñ{fill:url(#g156)}.ò{fill:url(#g157)}.ó{fill:url(#g158)}.ô{fill:url(#g159)}.õ{fill:url(#g160)}.ö{fill:url(#g161)}.÷{fill:url(#g162)}</style><g style="opacity:.1"><path class="A" d="m607 491c21.2 14.4-61.3 28-184.2 30.4c-123 2.5-239.9-7.2-261.1-21.6c-21.2-14.4 61.3-28 184.3-30.4c123-2.4 239.8 7.2 261 21.6z"/><path class="A" d="m603 491.1c20.8 14.1-60.2 27.5-180.9 29.9c-120.8 2.3-235.5-7.2-256.3-21.3c-20.8-14.1 60.2-27.5 180.9-29.8c120.7-2.4 235.5 7.1 256.3 21.2z"/><path class="B" d="m598.9 491.2c20.5 13.8-59 26.9-177.5 29.3c-118.5 2.3-231.2-7-251.6-20.9c-20.4-13.8 59.1-26.9 177.6-29.3c118.5-2.3 231.1 7 251.5 20.9z"/><path class="B" d="m594.9 491.2c20.1 13.6-57.9 26.5-174.2 28.8c-116.3 2.3-226.8-6.8-246.9-20.4c-20-13.6 58-26.5 174.3-28.8c116.3-2.3 226.8 6.9 246.8 20.4z"/><path class="B" d="m590.9 491.3c19.6 13.4-56.9 26-170.9 28.2c-114.1 2.3-222.5-6.7-242.1-20c-19.7-13.4 56.8-26 170.9-28.2c114-2.3 222.4 6.7 242.1 20z"/><path class="C" d="m586.8 491.4c19.3 13.1-55.7 25.5-167.5 27.7c-111.8 2.2-218.1-6.6-237.4-19.7c-19.3-13.1 55.8-25.5 167.6-27.7c111.8-2.2 218.1 6.6 237.3 19.7z"/><path class="C" d="m582.8 491.5c18.9 12.8-54.6 24.9-164.2 27.1c-109.6 2.2-213.8-6.5-232.6-19.3c-18.9-12.8 54.6-24.9 164.2-27.1c109.6-2.2 213.7 6.5 232.6 19.3z"/><path class="D" d="m578.8 491.6c18.5 12.5-53.5 24.4-160.9 26.5c-107.4 2.1-209.4-6.3-227.9-18.9c-18.5-12.5 53.5-24.4 160.9-26.5c107.3-2.1 209.4 6.3 227.9 18.9z"/><path class="D" d="m574.7 491.6c18.2 12.3-52.4 24-157.5 26.1c-105.1 2-205-6.2-223.2-18.5c-18.1-12.3 52.4-24 157.6-26c105.1-2.1 205 6.2 223.1 18.4z"/><path class="D" d="m570.7 491.7c17.7 12.1-51.3 23.5-154.2 25.5c-102.9 2-200.7-6.1-218.4-18.1c-17.8-12 51.3-23.4 154.2-25.5c102.9-2 200.7 6.1 218.4 18.1z"/><path class="E" d="m566.7 491.8c17.3 11.8-50.2 22.9-150.9 24.9c-100.7 2-196.3-5.9-213.7-17.7c-17.4-11.8 50.2-22.9 150.8-24.9c100.7-2 196.4 5.9 213.8 17.7z"/><path class="E" d="m562.6 491.9c17 11.5-49 22.4-147.5 24.3c-98.4 2-192-5.8-209-17.3c-16.9-11.5 49.1-22.4 147.5-24.3c98.5-2 192.1 5.8 209 17.3z"/><path class="E" d="m558.6 492c16.6 11.2-48 21.9-144.2 23.8c-96.2 1.9-187.6-5.7-204.2-17c-16.6-11.2 47.9-21.9 144.1-23.8c96.3-1.9 187.7 5.7 204.3 17z"/><path class="F" d="m554.6 492c16.2 11-46.9 21.4-140.9 23.3c-94 1.9-183.3-5.5-199.5-16.5c-16.2-11 46.9-21.4 140.8-23.3c94-1.8 183.3 5.6 199.6 16.5z"/><path class="F" d="m550.5 492.1c15.8 10.8-45.7 20.9-137.5 22.7c-91.7 1.8-178.9-5.4-194.8-16.1c-15.8-10.7 45.8-20.9 137.5-22.7c91.8-1.8 179 5.4 194.8 16.1z"/><path class="G" d="m546.5 492.2c15.4 10.5-44.6 20.4-134.2 22.2c-89.5 1.7-174.6-5.3-190-15.8c-15.5-10.5 44.6-20.4 134.1-22.1c89.6-1.8 174.6 5.2 190.1 15.7z"/><path class="G" d="m542.4 492.3c15.1 10.2-43.5 19.9-130.8 21.6c-87.3 1.7-170.2-5.2-185.3-15.4c-15-10.2 43.5-19.8 130.8-21.6c87.3-1.7 170.3 5.2 185.3 15.4z"/><path class="G" d="m538.4 492.4c14.7 9.9-42.4 19.3-127.5 21c-85 1.7-165.9-5-180.6-15c-14.6-9.9 42.5-19.3 127.5-21c85.1-1.7 165.9 5 180.6 15z"/><path class="H" d="m534.4 492.4c14.3 9.7-41.3 18.9-124.2 20.5c-82.8 1.7-161.5-4.8-175.8-14.5c-14.3-9.7 41.3-18.9 124.1-20.5c82.9-1.7 161.6 4.9 175.9 14.5z"/><path class="H" d="m530.3 492.5c13.9 9.4-40.1 18.4-120.8 20c-80.6 1.6-157.2-4.8-171.1-14.2c-13.9-9.4 40.2-18.4 120.8-20c80.6-1.5 157.2 4.8 171.1 14.2z"/><path class="H" d="m526.3 492.6c13.5 9.2-39.1 17.8-117.5 19.4c-78.3 1.5-152.8-4.6-166.3-13.8c-13.6-9.2 39-17.8 117.4-19.4c78.4-1.5 152.9 4.6 166.4 13.8z"/><path class="I" d="m522.3 492.7c13.1 8.9-38 17.3-114.1 18.8c-76.2 1.5-148.6-4.5-161.7-13.4c-13.1-8.9 38-17.3 114.1-18.8c76.2-1.5 148.5 4.5 161.7 13.4z"/><path class="I" d="m518.2 492.8c12.8 8.6-36.8 16.8-110.7 18.3c-74 1.4-144.2-4.4-157-13.1c-12.7-8.6 36.9-16.8 110.8-18.2c73.9-1.5 144.2 4.3 156.9 13z"/><path class="J" d="m514.2 492.8c12.4 8.4-35.7 16.4-107.4 17.8c-71.7 1.4-139.9-4.3-152.2-12.6c-12.4-8.4 35.7-16.4 107.4-17.8c71.7-1.4 139.8 4.3 152.2 12.6z"/><path class="J" d="m510.2 492.9c11.9 8.1-34.7 15.8-104.1 17.2c-69.5 1.4-135.5-4.1-147.5-12.2c-12-8.1 34.6-15.8 104.1-17.2c69.5-1.4 135.5 4.1 147.5 12.2z"/><path class="J" d="m506.1 493c11.6 7.9-33.5 15.3-100.7 16.6c-67.3 1.4-131.2-3.9-142.8-11.8c-11.6-7.9 33.6-15.3 100.8-16.6c67.2-1.4 131.1 3.9 142.7 11.8z"/><path class="K" d="m502.1 493.1c11.2 7.6-32.4 14.8-97.4 16.1c-65 1.2-126.8-3.9-138-11.5c-11.2-7.6 32.4-14.8 97.4-16.1c65-1.2 126.8 3.9 138 11.5z"/><path class="L" d="m498 493.2c10.9 7.3-31.2 14.3-94 15.5c-62.8 1.2-122.5-3.7-133.3-11.1c-10.8-7.3 31.3-14.2 94.1-15.5c62.8-1.2 122.4 3.7 133.2 11.1z"/></g><g style="opacity:.1"><path class="A" d="m202.1 496.5c10.3 11.8-29.3 23-88.5 25.1c-59.1 2.1-115.3-5.7-125.5-17.5c-10.3-11.8 29.4-23 88.5-25.1c59.1-2.1 115.3 5.7 125.5 17.5z"/><path class="A" d="m200.2 496.6c10 11.5-28.9 22.6-86.9 24.6c-58 2.1-113.2-5.6-123.3-17.2c-10-11.5 28.9-22.6 86.9-24.6c58.1-2.1 113.3 5.6 123.3 17.2z"/><path class="B" d="m198.3 496.6c9.8 11.4-28.4 22.2-85.3 24.2c-57 2.1-111.2-5.5-121-16.8c-9.9-11.4 28.3-22.2 85.3-24.2c56.9-2.1 111.1 5.5 121 16.8z"/><path class="B" d="m196.3 496.7c9.7 11.1-27.8 21.8-83.7 23.7c-55.9 2-109-5.4-118.7-16.5c-9.7-11.1 27.8-21.8 83.7-23.7c55.9-2 109 5.4 118.7 16.5z"/><path class="B" d="m194.4 496.8c9.5 10.9-27.3 21.3-82.1 23.3c-54.8 1.9-107-5.4-116.5-16.3c-9.5-10.9 27.3-21.3 82.1-23.3c54.9-1.9 107 5.4 116.5 16.3z"/><path class="C" d="m192.4 496.8c9.3 10.7-26.7 21-80.4 22.9c-53.8 1.9-104.9-5.2-114.2-15.9c-9.3-10.7 26.7-21 80.5-22.9c53.7-1.9 104.8 5.2 114.1 15.9z"/><path class="C" d="m190.5 496.9c9.1 10.5-26.2 20.5-78.9 22.4c-52.7 1.9-102.8-5.1-111.9-15.6c-9.1-10.5 26.2-20.5 78.9-22.4c52.7-1.9 102.8 5.1 111.9 15.6z"/><path class="D" d="m188.6 497c8.9 10.2-25.7 20.1-77.3 21.9c-51.6 1.8-100.7-5-109.6-15.3c-9-10.2 25.6-20.1 77.2-21.9c51.6-1.8 100.7 5 109.7 15.3z"/><path class="D" d="m186.6 497c8.8 10.1-25.1 19.7-75.6 21.5c-50.6 1.8-98.6-4.9-107.4-14.9c-8.7-10.1 25.1-19.7 75.7-21.5c50.5-1.8 98.6 4.9 107.3 14.9z"/><path class="D" d="m184.7 497.1c8.5 9.9-24.6 19.3-74.1 21c-49.5 1.8-96.5-4.8-105.1-14.6c-8.5-9.9 24.6-19.3 74.1-21c49.5-1.8 96.5 4.8 105.1 14.6z"/><path class="E" d="m182.7 497.2c8.4 9.6-24 18.8-72.4 20.5c-48.4 1.8-94.4-4.7-102.8-14.3c-8.4-9.6 24-18.8 72.4-20.5c48.4-1.8 94.5 4.6 102.8 14.3z"/><path class="E" d="m180.8 497.2c8.2 9.5-23.5 18.5-70.9 20.2c-47.3 1.6-92.3-4.6-100.5-14.1c-8.2-9.4 23.6-18.4 70.9-20.1c47.3-1.6 92.3 4.6 100.5 14z"/><path class="E" d="m178.9 497.3c8 9.2-23 18-69.3 19.7c-46.2 1.6-90.2-4.5-98.2-13.7c-8-9.2 23-18 69.2-19.7c46.3-1.6 90.3 4.5 98.3 13.7z"/><path class="F" d="m176.9 497.4c7.8 9-22.4 17.6-67.6 19.2c-45.2 1.6-88.2-4.4-96-13.4c-7.8-9 22.5-17.6 67.6-19.2c45.2-1.6 88.2 4.4 96 13.4z"/><path class="F" d="m175 497.5c7.6 8.7-22 17.1-66.1 18.7c-44.1 1.6-86-4.3-93.7-13.1c-7.6-8.7 22-17.1 66.1-18.7c44.1-1.6 86 4.3 93.7 13.1z"/><path class="G" d="m173 497.5c7.5 8.6-21.4 16.8-64.4 18.3c-43 1.5-84-4.2-91.4-12.7c-7.5-8.6 21.4-16.8 64.4-18.3c43.1-1.5 84 4.2 91.4 12.7z"/><path class="G" d="m171.1 497.6c7.3 8.3-20.9 16.3-62.8 17.8c-42 1.5-81.9-4-89.2-12.4c-7.2-8.4 20.9-16.3 62.9-17.8c41.9-1.5 81.8 4 89.1 12.4z"/><path class="G" d="m169.2 497.7c7 8.1-20.4 15.9-61.3 17.3c-40.9 1.5-79.8-3.9-86.8-12.1c-7.1-8.1 20.3-15.9 61.2-17.3c40.9-1.5 79.8 3.9 86.9 12.1z"/><path class="H" d="m167.2 497.7c6.9 8-19.8 15.5-59.6 17c-39.8 1.4-77.7-3.9-84.6-11.8c-6.9-8 19.8-15.5 59.6-17c39.9-1.4 77.7 3.9 84.6 11.8z"/><path class="H" d="m165.3 497.8c6.7 7.7-19.3 15.1-58 16.5c-38.8 1.3-75.6-3.8-82.4-11.5c-6.7-7.7 19.3-15.1 58.1-16.5c38.7-1.3 75.6 3.8 82.3 11.5z"/><path class="H" d="m163.3 497.9c6.6 7.5-18.7 14.6-56.4 16c-37.7 1.3-73.5-3.7-80-11.2c-6.5-7.5 18.7-14.6 56.4-16c37.7-1.3 73.5 3.7 80 11.2z"/><path class="I" d="m161.4 497.9c6.3 7.3-18.2 14.3-54.8 15.6c-36.6 1.3-71.4-3.6-77.8-10.8c-6.3-7.3 18.2-14.3 54.8-15.6c36.6-1.3 71.5 3.6 77.8 10.8z"/><path class="I" d="m159.5 498c6.1 7.1-17.7 13.8-53.3 15.1c-35.5 1.3-69.3-3.4-75.4-10.5c-6.2-7.1 17.6-13.8 53.2-15.1c35.5-1.3 69.3 3.4 75.5 10.5z"/><path class="J" d="m157.5 498.1c6 6.8-17.1 13.4-51.6 14.6c-34.5 1.2-67.2-3.3-73.2-10.2c-6-6.8 17.1-13.4 51.6-14.6c34.5-1.2 67.2 3.3 73.2 10.2z"/><path class="J" d="m155.6 498.1c5.8 6.7-16.6 13-50 14.2c-33.4 1.2-65.2-3.2-71-9.8c-5.7-6.7 16.6-13 50-14.2c33.4-1.2 65.2 3.2 71 9.8z"/><path class="J" d="m153.6 498.2c5.6 6.4-16 12.6-48.4 13.7c-32.3 1.2-63-3.1-68.6-9.5c-5.6-6.5 16.1-12.6 48.4-13.8c32.3-1.1 63 3.2 68.6 9.6z"/><path class="K" d="m151.7 498.3c5.4 6.2-15.5 12.1-46.8 13.3c-31.2 1.1-61-3.1-66.4-9.3c-5.4-6.2 15.6-12.2 46.8-13.3c31.3-1.1 61 3.1 66.4 9.3z"/><path class="L" d="m149.8 498.4c5.2 6-15.1 11.7-45.2 12.8c-30.2 1-58.9-2.9-64.1-9c-5.3-6 15-11.7 45.2-12.8c30.1-1.1 58.8 2.9 64.1 9z"/></g><g style="opacity:.1"><path class="A" d="m699.9 496.5c10.2 11.8-29.4 23-88.5 25.1c-59.2 2.1-115.4-5.7-125.6-17.5c-10.2-11.8 29.4-23 88.5-25.1c59.1-2.1 115.3 5.7 125.6 17.5z"/><path class="A" d="m697.9 496.6c10.1 11.5-28.8 22.6-86.9 24.6c-58 2.1-113.2-5.6-123.3-17.2c-10-11.5 28.9-22.6 86.9-24.6c58.1-2.1 113.3 5.6 123.3 17.2z"/><path class="B" d="m696 496.6c9.8 11.4-28.4 22.2-85.3 24.2c-57 2.1-111.2-5.5-121-16.8c-9.9-11.4 28.3-22.2 85.3-24.2c56.9-2.1 111.1 5.5 121 16.8z"/><path class="B" d="m694 496.7c9.7 11.1-27.8 21.8-83.7 23.7c-55.9 2-109-5.4-118.7-16.5c-9.7-11.1 27.8-21.8 83.7-23.7c55.9-2 109.1 5.4 118.7 16.5z"/><path class="B" d="m692.1 496.8c9.5 10.9-27.3 21.3-82.1 23.3c-54.8 1.9-107-5.4-116.4-16.3c-9.5-10.9 27.2-21.3 82-23.3c54.9-1.9 107 5.4 116.5 16.3z"/><path class="C" d="m690.2 496.8c9.3 10.7-26.8 21-80.5 22.9c-53.8 1.9-104.9-5.2-114.2-15.9c-9.3-10.7 26.7-21 80.5-22.9c53.7-1.9 104.8 5.2 114.2 15.9z"/><path class="C" d="m688.2 496.9c9.1 10.5-26.2 20.5-78.9 22.4c-52.6 1.9-102.7-5.1-111.9-15.6c-9.1-10.5 26.2-20.5 78.9-22.4c52.7-1.9 102.8 5.1 111.9 15.6z"/><path class="D" d="m686.3 497c8.9 10.2-25.7 20.1-77.3 21.9c-51.6 1.8-100.7-5-109.6-15.3c-9-10.2 25.6-20.1 77.2-21.9c51.7-1.8 100.7 5 109.7 15.3z"/><path class="D" d="m684.3 497c8.8 10.1-25.1 19.7-75.6 21.5c-50.6 1.8-98.6-4.9-107.4-14.9c-8.7-10.1 25.1-19.7 75.7-21.5c50.5-1.8 98.6 4.9 107.3 14.9z"/><path class="D" d="m682.4 497.1c8.6 9.9-24.6 19.3-74.1 21c-49.4 1.8-96.5-4.8-105-14.6c-8.6-9.9 24.5-19.3 74-21c49.5-1.8 96.5 4.8 105.1 14.6z"/><path class="E" d="m680.5 497.2c8.3 9.6-24.1 18.8-72.5 20.5c-48.4 1.8-94.4-4.7-102.8-14.3c-8.4-9.6 24.1-18.8 72.5-20.5c48.3-1.8 94.4 4.6 102.8 14.3z"/><path class="E" d="m678.5 497.2c8.2 9.5-23.5 18.5-70.8 20.2c-47.4 1.6-92.4-4.6-100.6-14.1c-8.2-9.4 23.6-18.4 70.9-20.1c47.3-1.6 92.3 4.6 100.5 14z"/><path class="E" d="m676.6 497.3c8 9.2-23 18-69.3 19.7c-46.2 1.6-90.2-4.5-98.2-13.7c-8-9.2 23-18 69.2-19.7c46.3-1.6 90.3 4.5 98.3 13.7z"/><path class="F" d="m674.6 497.4c7.9 9-22.4 17.6-67.6 19.2c-45.2 1.6-88.2-4.4-96-13.4c-7.8-9 22.5-17.6 67.7-19.2c45.1-1.6 88.1 4.4 95.9 13.4z"/><path class="F" d="m672.7 497.5c7.6 8.7-21.9 17.1-66.1 18.7c-44.1 1.6-86-4.3-93.6-13.1c-7.7-8.7 21.9-17.1 66-18.7c44.1-1.6 86.1 4.3 93.7 13.1z"/><path class="G" d="m670.7 497.5c7.5 8.6-21.3 16.8-64.4 18.3c-43 1.5-84-4.2-91.4-12.7c-7.5-8.6 21.4-16.8 64.4-18.3c43.1-1.5 84 4.2 91.4 12.7z"/><path class="G" d="m668.8 497.6c7.3 8.3-20.9 16.3-62.8 17.8c-42 1.5-81.9-4-89.2-12.4c-7.2-8.4 20.9-16.3 62.9-17.8c41.9-1.5 81.8 4 89.1 12.4z"/><path class="G" d="m666.9 497.7c7 8.1-20.4 15.9-61.3 17.3c-40.9 1.5-79.7-3.9-86.8-12.1c-7.1-8.1 20.3-15.9 61.2-17.3c40.9-1.5 79.8 3.9 86.9 12.1z"/><path class="H" d="m664.9 497.7c6.9 8-19.8 15.5-59.6 17c-39.8 1.4-77.7-3.9-84.6-11.8c-6.9-8 19.8-15.5 59.6-17c39.9-1.4 77.7 3.9 84.6 11.8z"/><path class="H" d="m663 497.8c6.7 7.7-19.3 15.1-58 16.5c-38.8 1.3-75.6-3.8-82.3-11.5c-6.8-7.7 19.2-15.1 58-16.5c38.7-1.3 75.6 3.8 82.3 11.5z"/><path class="H" d="m661 497.9c6.6 7.5-18.7 14.6-56.4 16c-37.6 1.3-73.5-3.7-80-11.2c-6.5-7.5 18.7-14.6 56.4-16c37.7-1.3 73.5 3.7 80 11.2z"/><path class="I" d="m659.1 497.9c6.3 7.3-18.2 14.3-54.8 15.6c-36.6 1.3-71.4-3.6-77.8-10.8c-6.3-7.3 18.2-14.3 54.8-15.6c36.7-1.3 71.5 3.6 77.8 10.8z"/><path class="I" d="m657.2 498c6.1 7.1-17.7 13.8-53.2 15.1c-35.6 1.3-69.4-3.4-75.5-10.5c-6.2-7.1 17.6-13.8 53.2-15.1c35.5-1.3 69.3 3.4 75.5 10.5z"/><path class="J" d="m655.2 498.1c6 6.8-17.1 13.4-51.6 14.6c-34.4 1.2-67.2-3.3-73.2-10.2c-6-6.8 17.2-13.4 51.6-14.6c34.5-1.2 67.3 3.3 73.2 10.2z"/><path class="J" d="m653.3 498.1c5.8 6.7-16.6 13-50 14.2c-33.4 1.2-65.2-3.2-70.9-9.8c-5.8-6.7 16.6-13 50-14.2c33.3-1.2 65.1 3.2 70.9 9.8z"/><path class="J" d="m651.3 498.2c5.6 6.4-16 12.6-48.3 13.7c-32.4 1.2-63.1-3.1-68.7-9.5c-5.6-6.5 16.1-12.6 48.4-13.8c32.3-1.1 63.1 3.2 68.6 9.6z"/><path class="K" d="m649.4 498.3c5.4 6.2-15.5 12.1-46.8 13.3c-31.2 1.1-61-3.1-66.4-9.3c-5.4-6.2 15.6-12.2 46.8-13.3c31.3-1.1 61 3.1 66.4 9.3z"/><path class="L" d="m647.5 498.4c5.2 6-15 11.7-45.2 12.8c-30.2 1-58.9-2.9-64.1-9c-5.2-6 15-11.7 45.2-12.8c30.1-1.1 58.8 2.9 64.1 9z"/></g><rect class="M" x="552.6" y="53.8" width="100.2" height="138.4" rx="5"></rect><rect class="N" x="555.5" y="65.4" width="94.4" height="123.1" rx="4"></rect><path class="O" d="m600.7 132.4h31.3v3h-31.3z"/><path class="P" d="m600.7 139.7h31.3v3.1h-31.3z"/><path class="Q" d="m600.7 147.1h31.3v3.1h-31.3z"/><path class="R" d="m571.9 154.5h60.1v3.1h-60.1z"/><path class="S" d="m571.9 161.8h60.1v3.1h-60.1z"/><path class="T" d="m571.9 169.2h60.1v3.1h-60.1z"/><path class="U" d="m571.9 129h23.1v21.4h-23.1z"/><path fill-rule="evenodd" class="V" d="m565.9 78.5c0-1.7 1.3-3 3-3h67.7c1.6 0 3 1.3 3 3v38.8c0 1.7-1.4 3-3 3h-67.7c-1.7 0-3-1.3-3-3zm0.7 39.1c0 1.1 0.9 2 2 2h68.2c1.1 0 2-0.9 2-2v-39.3c0-1.1-0.9-2-2-2h-68.2c-1.1 0-2 0.9-2 2z"/><path fill-rule="evenodd" class="W" d="m576.8 78.9h56v37.8h-56zm0.5 37.2h55v-36.7h-55z"/><path class="W" d="m577.1 84.1h55.4v0.5h-55.4z"/><path class="W" d="m577.1 88.7h55.4v0.5h-55.4z"/><path class="W" d="m577.1 93.3h55.4v0.5h-55.4z"/><path class="W" d="m577.1 97.9h55.4v0.5h-55.4z"/><path class="W" d="m577.1 102.5h55.4v0.5h-55.4z"/><path class="W" d="m577.1 107.1h55.4v0.5h-55.4z"/><path class="W" d="m577.1 111.7h55.4v0.5h-55.4z"/><path class="W" d="m581.4 79.2h0.5v37.2h-0.5z"/><path class="W" d="m587.1 79.2h0.5v37.2h-0.5z"/><path class="W" d="m592.8 79.2h0.5v37.2h-0.5z"/><path class="W" d="m598.6 79.2h0.5v37.2h-0.5z"/><path class="W" d="m604.3 79.2h0.5v37.2h-0.5z"/><path class="W" d="m610 79.2h0.5v37.2h-0.5z"/><path class="W" d="m615.8 79.2h0.5v37.2h-0.5z"/><path class="W" d="m621.5 79.2h0.5v37.2h-0.5z"/><path class="W" d="m627.2 79.2h0.5v37.2h-0.5z"/><path class="X" d="m575.3 79.9h-4.5q0 0-0.1-0.1v-1.2q0.1-0.1 0.1-0.1h4.5q0 0 0 0.1v1.2q0 0.1 0 0.1z"/><path class="Y" d="m575.3 85h-4.5q0 0-0.1 0v-1.3q0.1 0 0.1 0h4.5q0 0 0 0v1.3q0 0 0 0z"/><path class="Z" d="m575.3 90.2h-4.5q0 0-0.1-0.1v-1.2q0.1-0.1 0.1-0.1h4.5q0 0 0 0.1v1.2q0 0.1 0 0.1z"/><path class="a" d="m575.3 95.3h-4.5q0 0-0.1 0v-1.3q0.1 0 0.1 0h4.5q0 0 0 0v1.3q0 0 0 0z"/><path class="b" d="m575.3 100.5h-4.5q0 0-0.1-0.1v-1.2q0.1-0.1 0.1-0.1h4.5q0 0 0 0.1v1.2q0 0.1 0 0.1z"/><path class="c" d="m575.3 105.6h-4.5q0 0-0.1 0v-1.3q0.1 0 0.1 0h4.5q0 0 0 0v1.3q0 0 0 0z"/><path class="d" d="m575.3 110.8h-4.5q0 0-0.1-0.1v-1.2q0.1-0.1 0.1-0.1h4.5q0 0 0 0.1v1.2q0 0.1 0 0.1z"/><path class="e" d="m579.5 104.1h7.3v10.8h-7.3z"/><path class="f" d="m590.4 97.5h7.3v17.4h-7.3z"/><path class="g" d="m601.3 91.3h7.2v23.6h-7.2z"/><path class="h" d="m612.2 84.1h7.2v30.8h-7.2z"/><path class="i" d="m623.1 95.8h7.2v19.1h-7.2z"/><path class="j" d="m533.7 258h-3.1v-61.7c0-4.1-3.3-7.4-7.4-7.4h-21.7v-3.1h21.7c5.8 0 10.5 4.7 10.5 10.5z"/><path class="k" d="m518.5 171.1h-17v-3.2h17c3.1 0 5.7-2.5 5.7-5.6v-47.5c0-4.6 3.7-8.3 8.3-8.3h20.1v3.2h-20.1c-2.9 0-5.2 2.3-5.2 5.1v47.5c0 4.8-3.9 8.8-8.8 8.8z"/><path class="l" d="m557.1 242.6h-3.2v-33c0-3 2.4-5.3 5.4-5.3h50.6c2.1 0 3.9-1.8 3.9-3.9v-9h3.1v9c0 3.9-3.1 7-7 7h-50.6c-1.2 0-2.2 1-2.2 2.2z"/><rect class="m" x="212.4" y="108.1" width="299" height="223.1" rx="5"></rect><rect class="n" x="218.2" y="135.1" width="287.4" height="190.9" rx="5"></rect><rect class="o" x="225.4" y="144.2" width="146.4" height="99.8" rx="6"></rect><path class="o" d="m378.5 144.2h123v178.6h-123z"/><path class="o" d="m225.4 253.8h146.3v69h-146.3z"/><path class="p" d="m236.2 264.5h15.6v4.8h-15.6z"/><path class="q" d="m255.5 264.5h102.5v4.8h-102.5z"/><path class="r" d="m236.2 274.7h15.6v4.8h-15.6z"/><path class="s" d="m255.5 274.7h102.5v4.8h-102.5z"/><path class="t" d="m236.2 284.8h15.6v4.8h-15.6z"/><path class="u" d="m255.5 284.8h102.5v4.8h-102.5z"/><path class="v" d="m236.2 295h15.6v4.8h-15.6z"/><path class="w" d="m255.5 295h102.5v4.8h-102.5z"/><path class="x" d="m236.2 305.1h15.6v4.8h-15.6z"/><path class="y" d="m255.5 305.1h102.5v4.8h-102.5z"/><path fill-rule="evenodd" class="W" d="m395.3 153.6h100.1v77.5h-100.1zm0.9 76.5h98.3v-75.4h-98.3z"/><path class="W" d="m395.7 164.2h99.3v1h-99.3z"/><path class="W" d="m395.7 173.6h99.3v1.1h-99.3z"/><path class="W" d="m395.7 183.1h99.3v1h-99.3z"/><path class="W" d="m395.7 192.5h99.3v1.1h-99.3z"/><path class="W" d="m395.7 202h99.3v1h-99.3z"/><path class="W" d="m395.7 211.4h99.3v1h-99.3z"/><path class="W" d="m395.7 220.8h99.3v1.1h-99.3z"/><path class="W" d="m403.4 154.1h0.9v76.5h-0.9z"/><path class="W" d="m413.6 154.1h0.9v76.5h-0.9z"/><path class="W" d="m423.9 154.1h0.9v76.5h-0.9z"/><path class="W" d="m434.2 154.1h0.9v76.5h-0.9z"/><path class="W" d="m444.4 154.1h0.9v76.5h-0.9z"/><path class="W" d="m454.7 154.1h0.9v76.5h-0.9z"/><path class="W" d="m465 154.1h0.9v76.5h-0.9z"/><path class="W" d="m475.2 154.1h0.9v76.5h-0.9z"/><path class="W" d="m485.5 154.1h0.9v76.5h-0.9z"/><path class="z" d="m392.5 155.5h-8q-0.1 0-0.1-0.1v-2.6q0-0.1 0.1-0.1h8q0.1 0 0.1 0.1v2.6q0 0.1-0.1 0.1z"/><path class="{" d="m392.5 166.1h-8q-0.1 0-0.1-0.1v-2.6q0-0.1 0.1-0.1h8q0.1 0 0.1 0.1v2.6q0 0.1-0.1 0.1z"/><path class="|" d="m392.5 176.7h-8q-0.1 0-0.1-0.1v-2.6q0-0.1 0.1-0.1h8q0.1 0 0.1 0.1v2.6q0 0.1-0.1 0.1z"/><path class="}" d="m392.5 187.3h-8q-0.1 0-0.1-0.1v-2.6q0-0.1 0.1-0.1h8q0.1 0 0.1 0.1v2.6q0 0.1-0.1 0.1z"/><path class="~" d="m392.5 197.9h-8q-0.1 0-0.1-0.1v-2.6q0-0.1 0.1-0.1h8q0.1 0 0.1 0.1v2.6q0 0.1-0.1 0.1z"/><path class="" d="m392.5 208.5h-8q-0.1 0-0.1-0.1v-2.6q0-0.1 0.1-0.1h8q0.1 0 0.1 0.1v2.6q0 0.1-0.1 0.1z"/><path class="" d="m392.5 219.1h-8q-0.1 0-0.1-0.1v-2.6q0-0.1 0.1-0.1h8q0.1 0 0.1 0.1v2.6q0 0.1-0.1 0.1z"/><path class="" d="m396 211.8l-0.6-3l8.2-1.8l9.7-5l10.5-11.2h10.8l9.6-2.5l10.3-11.5l10.8-6.4l20.1-2.4l8.7-8.4l1.7 2.4l-9.3 9l-20.7 2.4l-9.8 6.1l-10.4 11.6l-10.7 2.8h-10l-10.3 10.8l-10.2 5.2z"/><path class="" d="m424.8 219.3l-10.9-1.5l-18.1 1.4l-0.2-3.1l18.4-1.4l9.9 1.4l10.1-10.5l11.2-1.7l9.2-3.8l10.6-12.8l11.5 2.9l9.3 7.7l8.2-9.2l1.9 2.2l-9.8 11.1l-11-9.1l-9.2-2.3l-10.3 12.3l-9.8 4l-10.6 1.7z"/><path class="" d="m434.2 277.4c0 2.9-0.7 5.7-1.9 8.2c-2.9 6.4-9.2 11-16.7 11.7c-0.6 0-1.2 0.1-1.9 0.1c-11.3 0-20.5-9-20.5-20c0-11.1 9.2-20.1 20.5-20.1c5.3 0 10.2 2 13.8 5.3c4.1 3.7 6.7 8.9 6.7 14.8z"/><path class="" d="m434.2 277.4c0 2.9-0.7 5.7-1.9 8.2l-18.6-8.2l13.8-14.8c4.1 3.7 6.7 8.9 6.7 14.8z"/><path class="" d="m432.3 285.6c-2.9 6.4-9.2 11-16.7 11.7l-1.9-19.9z"/><path fill-rule="evenodd" class="" d="m493.1 277.4c0 11-9.2 20-20.5 20c-0.7 0-1.3-0.1-1.9-0.1c-7.5-0.7-13.8-5.3-16.7-11.7c-1.2-2.5-1.9-5.3-1.9-8.2c0-5.9 2.6-11.1 6.7-14.8c3.6-3.3 8.5-5.3 13.8-5.3c11.3 0 20.5 9 20.5 20.1zm-7.8 0c0-6.9-5.7-12.4-12.7-12.4c-3.3 0-6.3 1.2-8.5 3.2c-2.6 2.3-4.2 5.5-4.2 9.2q0.1 2.7 1.2 5v0.1c1.8 3.9 5.7 6.7 10.3 7.2c0.4 0 0.8 0 1.2 0c7 0 12.7-5.5 12.7-12.3z"/><path class="" d="m459.9 277.4q0.1 2.7 1.2 5v0.1l-7.1 3.1c-1.2-2.5-1.9-5.3-1.9-8.2c0-5.9 2.6-11.1 6.7-14.8l5.3 5.6c-2.6 2.3-4.2 5.5-4.2 9.2z"/><path class="" d="m471.4 289.7l-0.7 7.6c-7.5-0.7-13.8-5.3-16.7-11.7l7.1-3.1c1.8 3.9 5.7 6.7 10.3 7.2z"/><path class="" d="m426.8 309.1h15.6v4.8h-15.6z"/><path class="" d="m246.7 200.7h14.1v21.5h-14.1z"/><path class="" d="m267.9 187.8h14.1v34.4h-14.1z"/><path class="" d="m289.1 175.5h14.1v46.7h-14.1z"/><path class="" d="m310.3 161.2h14.1v61h-14.1z"/><path class="" d="m331.5 184.4h14.1v37.8h-14.1z"/><path class="" d="m244.9 158.4h31.8v4.1h-31.8z"/><path class="" d="m244.9 169.6h21.5v4.1h-21.5z"/><path class="" d="m387.4 241.6h15.7v4.8h-15.7z"/><path class="" d="m479.3 309.1h15.7v4.8h-15.7z"/><path class="" d="m440 241.6h15.6v4.8h-15.6z"/><circle class="" cx="234.3" cy="119.5" r="3.6"/><circle class="" cx="248" cy="119.5" r="3.6"/><circle class="" cx="261.6" cy="119.5" r="3.6"/><rect class="" x="428" y="16.5" width="108.1" height="67.7" rx="5"></rect><rect class="" x="431.9" y="20.5" width="100.2" height="59.9" rx="5"></rect><path class="" d="m453 55.6h8.2v10.9h-8.2z"/><path class="" d="m465.4 49.1h8.2v17.4h-8.2z"/><path class="" d="m477.7 42.8h8.2v23.7h-8.2z"/><path class="" d="m490 35.6h8.3v30.9h-8.3z"/><path class="" d="m502.4 47.3h8.2v19.2h-8.2z"/><rect class="" x="255.3" y="20.5" width="100.2" height="59.9" rx="5"></rect><path class="" d="m267.9 31h31.1v3.6h-31.1z"/><path class=" " d="m267.9 39.8h75v3.6h-75z"/><path class="¡" d="m267.9 48.6h75v3.6h-75z"/><path class="¢" d="m267.9 57.4h75v3.5h-75z"/><path class="£" d="m267.9 66.2h75v3.5h-75z"/><rect class="¤" x="102.6" y="133.1" width="100.2" height="200.6" rx="8"></rect><rect class="¥" x="105.6" y="144.6" width="94.4" height="185.3" rx="7"></rect><path fill-rule="evenodd" class="V" d="m115.9 213c0-1.7 1.3-3 3-3h67.7c1.7 0 3 1.3 3 3v38.8c0 1.7-1.3 3-3 3h-67.7c-1.7 0-3-1.3-3-3zm0.8 39.1c0 1.1 0.9 2 2 2h68.2c1.1 0 2-0.9 2-2v-39.3c0-1.1-0.9-2-2-2h-68.2c-1.1 0-2 0.9-2 2z"/><path class="¦" d="m150.8 158.7h31.2v3.1h-31.2z"/><path class="§" d="m150.8 166.1h31.2v3.1h-31.2z"/><path class="¨" d="m150.8 173.5h31.2v3.1h-31.2z"/><path class="©" d="m122 180.9h60v3h-60z"/><path class="ª" d="m122 188.2h60v3.1h-60z"/><path class="«" d="m122 195.6h60v3.1h-60z"/><path class="¬" d="m122 155.4h23.1v21.4h-23.1z"/><path class="­" d="m150.8 273.4h31.2v3h-31.2z"/><path class="®" d="m150.8 280.7h31.2v3.1h-31.2z"/><path class="¯" d="m150.8 288.1h31.2v3.1h-31.2z"/><path class="°" d="m122 295.5h60v3.1h-60z"/><path class="±" d="m122 302.8h60v3.1h-60z"/><path class="²" d="m122 310.2h60v3.1h-60z"/><path class="³" d="m122 270h23.1v21.4h-23.1z"/><path class="´" d="m147.7 232.9c0 2-0.4 3.9-1.2 5.6c-2 4.3-6.2 7.4-11.1 7.9q-0.6 0-1.3 0c-7.4 0-13.5-6-13.5-13.5c0-7.5 6.1-13.6 13.5-13.6c3.6 0 6.8 1.4 9.2 3.6c2.7 2.5 4.4 6 4.4 10z"/><path class="µ" d="m147.7 232.9c0 2-0.4 3.9-1.2 5.6l-12.4-5.6l9.2-10c2.7 2.5 4.4 6 4.4 10z"/><path class="¶" d="m146.5 238.5c-2 4.3-6.2 7.4-11.1 7.9l-1.3-13.5z"/><path class="·" d="m181.2 223.5h-20.9q-0.1 0-0.1-0.1v-2.5q0-0.1 0.1-0.1h20.9q0.2 0 0.2 0.1v2.5q0 0.1-0.2 0.1z"/><path class="¸" d="m184.8 229.9h-27.9q-0.1-0.1-0.1-0.2v-2.5q0-0.1 0.1-0.1h27.9q0.1 0 0.1 0.1v2.5q0 0.1-0.1 0.2z"/><path class="¹" d="m184.8 236.2h-27.9q-0.1 0-0.1-0.2v-2.5q0-0.1 0.1-0.1h27.9q0.1 0 0.1 0.1v2.5q0 0.2-0.1 0.2z"/><path class="º" d="m184.8 242.5h-27.9q-0.1 0-0.1-0.1v-2.6q0-0.1 0.1-0.1h27.9q0.1 0 0.1 0.1v2.6q0 0.1-0.1 0.1z"/><path class="»" d="m174.5 133.1h-3.2v-39.6c0-3.2 2.7-5.9 5.9-5.9h31.5c1.9 0 3.5-1.5 3.5-3.4v-29.3c0-3.4 2.7-6.1 6.1-6.1h37.2v3.2h-37.2c-1.6 0-2.9 1.3-2.9 2.9v29.3c0 3.6-3 6.6-6.7 6.6h-31.5c-1.5 0-2.7 1.2-2.7 2.7z"/><path class="¼" d="m468.8 98.7h-73c-4.1 0-7.5-3.3-7.5-7.5v-42.9c0-1.8-1.5-3.4-3.3-3.4h-29.5v-3.1h29.5c3.6 0 6.5 2.9 6.5 6.5v42.9c0 2.4 1.9 4.3 4.3 4.3h73c2.3 0 4.2-1.9 4.2-4.3v-7h3.2v7c0 4.2-3.3 7.5-7.4 7.5z"/><rect class="½" x="509.5" y="228.7" width="179" height="67.7" rx="7"></rect><rect class="¾" x="513.5" y="232.7" width="171.2" height="59.9" rx="5"></rect><path class="¿" d="m587 243.3h31.1v3.5h-31.1z"/><path class="À" d="m587 252.1h75v3.5h-75z"/><path class="Á" d="m587 260.8h75v3.6h-75z"/><path class="Â" d="m587 269.6h75v3.6h-75z"/><path class="Ã" d="m587 278.4h75v3.6h-75z"/><circle class="Ä" cx="549.2" cy="262.6" r="17.5"/><path class="o" d="m558.6 270c0 5.2-4.2 9.4-9.4 9.4c-5.2 0-9.4-4.2-9.4-9.4c0-4.4 2.9-8 7-9.1c-1.4-0.8-2.3-2.3-2.3-4c0-2.6 2.1-4.7 4.7-4.7c2.6 0 4.7 2.1 4.7 4.7c0 1.7-0.9 3.2-2.2 4c4 1.1 6.9 4.7 6.9 9.1z"/><path class="Å" d="m95.1 481.3q3.1 2.1 4.4 3.2c1.4 1.1 10-1 15.2 1.2q5.3 2.1 5.4 9.7q-33 0-37.1 0q-4.1 0-4.1-1.6v-12.5z"/><path class="Æ" d="m57.3 481.3q4 0.8 7.8 4.2q3.9 3.4 1.9 7.9q-23.2 0.9-23.3 0q-0.2-0.9 1.1-10.6z"/><path class="Ç" d="m34.8 346.2q3.2 1.5 3.7 5.5c0.5 4 0.9 14.3-1.8 16.6c-2.8 2.2-6.5-10.4-9.8-12.6q-3.2-2.3-3.8-7.5q6.3 1.1 11.7-2z"/><path class="È" d="m72 352.9q2.9 58-3 72.2q-6 14.2-8.8 57.7q-0.7 1.4-7.1 1.6q-6.4 0.3-9.4-2.3q0.4-9-1.5-26.7q-2-17.8 4.8-35.5l-3.1-36.2q-1.7-2.1-5-12.8q-3.4-10.6 0-22.4z"/><path class="É" d="m30.2 303.2l5.6 41.4q-1.3 3.5-6.3 4.3q-5 0.9-7.5-1.4l-9.2-44.3z"/><path class="Ê" d="m45.1 267.3q-7.1 34.9-17.5 41.5c-11.5 7.3-16-7.2-16-11.1q0-3.8 24.2-54q10.8-4.5 9.3 23.6z"/><path class="Ë" d="m130.8 232.8q3.4-5.1 10.1-2.9q6.7 2.2 7.1 8q-4.9 56.9-9.1 58.8q-4.2 1.8-14.2-28.8z"/><path class="Ì" d="m132.8 230.9q-3.4-15.1-2-19.6q1.4-4.4 6.5-12.7q2.5-0.8 1.6 2.8c-0.9 3.7-1.4 9.6-1 10.5c0.4 1 8.8 6.3 10.1 8.6q1.3 2.3-1.2 13.9q-6.5-6.4-14-3.5z"/><path class="Í" d="m93.1 195.9q1.3 9.3 0.7 10.6q-0.5 1.3-0.7 2.3q2 4.7 1.7 5.8c-0.4 1-2.5 13.2-3.7 14.6c-1.2 1.5-5.3 0.7-5.9 1.1q-0.7 0.5 0 6h-24.2q3.6-18.4 2.6-24.8c-1-6.4 5-12.8 10.8-15q5.9-2.2 18.7-0.6z"/><path class="Î" d="m96.2 192.1c1.8 3.9-2.9 8-6.2 8.5c-3.2 0.6-0.9 7.5-3.5 8.5c-2.6 1-0.6 7.2-2 7.5c-1.3 0.3-2.1-0.1-2.3-1.4c-0.3-1.3-3-7.1-4.3-7.1c-1.3 0-4.2 3.6-1.3 7.1c3 3.6-0.5 6.7-4 7.3c-3.5 0.5-9 0.6-10.7-0.9c-1.7-1.5-4.3-5.3-5.7-10.6q-1.5-5.4 3.9-10.4q-1.7-10.4 6.5-11.7c8.2-1.3 27.1-2.2 29.6 3.2z"/><path class="Ï" d="m57.7 231.4h32.2q-2.3 6.7 1.1 10c3.3 3.3 15.1 5 15.1 10.5q0 5.6-4 97.4q-15.8 13.4-42.3 8.7q-17.3-3.1-20.9-9.5q5-33.1 2.4-51.3c-2.7-18.3-8-50.5-4.3-53.2c3.7-2.6 9.6-2.1 15.7-3.9q6-1.9 5-8.7z"/><path class="Ð" d="m129.8 274.3c5.7 8.2 13.1 19.1 8.3 23.3c-4.9 4.2-12.3 4.4-31.3-16.1c-19-20.5-12.1-31-7.5-33.2q4.5-2.3 6.8 0q18 17.8 23.7 26z"/><path class="Ñ" d="m101 350.2q8.7 50.2 3.7 68.5q-5 18.4-7.5 61.8q-3.8 4.5-10.6 4q-6.8-0.6-8.7-4.5q-0.6-12-0.2-28.1q0.5-16.1 3.4-31.8l-6.8-33.8q-5.2-1.8-10.2-8.6q-5-6.8-4.3-19.7q22.1 3.1 41.2-7.8z"/><path class="Ò" d="m613.1 298.4c-0.8 0-7.4 6.2-13 6c-5.5-0.3-10.3-5.4-9.9-12.4q0.4-7.1 19.5-50q4.1 56.4 3.4 56.4z"/><path class="Ó" d="m627.4 480.6v13.1q0 1.7-4.1 1.7q-4.1 0-37.5 0q0.1-8 5.5-10.2c5.3-2.3 13.9-0.2 15.3-1.3q1.3-1.2 4.5-3.3z"/><path class="Ô" d="m661.9 482.1q1.3 10.2 1.1 11.2q-0.2 1-23.6 0q-2-4.7 1.9-8.3q3.9-3.6 8-4.4z"/><path class="Õ" d="m667.8 340.7q3.5 12.4 0 23.6q-3.4 11.2-5 13.5l-3.1 38.1q6.8 18.6 4.8 37.3q-2 18.7-1.5 28.2q-3.1 2.7-9.5 2.5q-6.5-0.3-7.2-1.8q-2.9-45.8-8.8-60.8q-6-14.9-3.1-76z"/><path class="Ö" d="m646.7 350.6q0.7 13.6-4.3 20.8q-5.1 7.2-10.3 9.1l-6.9 35.6q3 16.5 3.4 33.5q0.5 16.9-0.2 29.6q-1.8 4.1-8.7 4.7q-6.9 0.5-10.8-4.2q-2.5-45.7-7.5-65q-5.1-19.4 3.7-72.2q19.3 11.4 41.6 8.1z"/><path class="×" d="m673.3 238.8q7.8 4.9 6.1 22c-1.8 17.1 1.5 38.1-13 38.1q-5.3 0 6.9-60.1z"/><path class="Ø" d="m643.4 195c5.5 2 11.2 8.1 10.2 14.2q-0.9 6 2.5 23.5h-22.9q0.6-5.2 0-5.6c-0.6-0.4-4.6 0.3-5.7-1.1c-1.1-1.3-3.1-12.9-3.4-13.9q-0.3-1 1.6-5.5q-0.2-0.9-0.7-2.1q-0.5-1.2 0.7-10.1q12.1-1.5 17.7 0.6z"/><path class="Ù" d="m650.8 187.8q7.8 1.2 6.2 11.1q5 4.7 3.7 9.8c-1.4 5.1-3.8 8.7-5.4 10.1c-1.7 1.4-6.9 1.3-10.2 0.8c-3.4-0.5-6.6-3.5-3.8-6.9c2.8-3.3 0-6.7-1.2-6.7c-1.2 0-3.8 5.5-4.1 6.7c-0.3 1.3-0.9 1.6-2.2 1.3c-1.3-0.2 0.6-6.1-1.9-7.1c-2.5-0.9-0.3-7.5-3.3-8c-3.1-0.5-7.6-4.4-5.9-8.1c2.4-5.2 20.3-4.2 28.1-3z"/><path class="Ú" d="m662.9 235.7c2.4 1.1 5.4 0.2 9.3 2.1c3.9 2 3 11.1 0.9 27.1q-2.2 15.9-3.8 78.1q-1.5 2.6-23.7 7.2q-22.2 4.6-40.5-7.7q2.6-90.7 3.5-97.9q0.9-7.3 16.2-8l5.2-7.2h27.9q2.6 5.2 5 6.3z"/><rect class="Û" x="323.7" y="272.1" width="105.7" height="76.5" rx="7"></rect><rect class="o" x="327.6" y="276.1" width="97.8" height="68.6" rx="5"></rect><path fill-rule="evenodd" class="W" d="m344.2 284.2h70.1v54.2h-70.1zm0.7 53.5h68.8v-52.7h-68.8z"/><path class="W" d="m344.5 291.6h69.5v0.8h-69.5z"/><path class="W" d="m344.5 298.2h69.5v0.8h-69.5z"/><path class="W" d="m344.5 304.8h69.5v0.8h-69.5z"/><path class="W" d="m344.5 311.4h69.5v0.8h-69.5z"/><path class="W" d="m344.5 318h69.5v0.8h-69.5z"/><path class="W" d="m344.5 324.6h69.5v0.8h-69.5z"/><path class="W" d="m344.5 331.2h69.5v0.8h-69.5z"/><path class="W" d="m349.9 284.6h0.6v53.5h-0.6z"/><path class="W" d="m357.1 284.6h0.6v53.5h-0.6z"/><path class="W" d="m364.3 284.6h0.6v53.5h-0.6z"/><path class="W" d="m371.5 284.6h0.6v53.5h-0.6z"/><path class="W" d="m378.6 284.6h0.7v53.5h-0.7z"/><path class="W" d="m385.8 284.6h0.7v53.5h-0.7z"/><path class="W" d="m393 284.6h0.6v53.5h-0.6z"/><path class="W" d="m400.2 284.6h0.6v53.5h-0.6z"/><path class="W" d="m407.4 284.6h0.6v53.5h-0.6z"/><path class="Ü" d="m342.3 285.6h-5.6q-0.1 0-0.1-0.1v-1.8q0-0.1 0.1-0.1h5.6q0.1 0 0.1 0.1v1.8q0 0.1-0.1 0.1z"/><path class="Ý" d="m342.3 293h-5.6q-0.1 0-0.1-0.1v-1.8q0-0.1 0.1-0.1h5.6q0.1 0 0.1 0.1v1.8q0 0.1-0.1 0.1z"/><path class="Þ" d="m342.3 300.4h-5.6q-0.1 0-0.1-0.1v-1.8q0-0.1 0.1-0.1h5.6q0.1 0 0.1 0.1v1.8q0 0.1-0.1 0.1z"/><path class="ß" d="m342.3 307.8h-5.6q-0.1 0-0.1-0.1v-1.8q0-0.1 0.1-0.1h5.6q0.1 0 0.1 0.1v1.8q0 0.1-0.1 0.1z"/><path class="à" d="m342.3 315.2h-5.6q-0.1 0-0.1-0.1v-1.8q0-0.1 0.1-0.1h5.6q0.1 0 0.1 0.1v1.8q0 0.1-0.1 0.1z"/><path class="á" d="m342.3 322.6h-5.6q-0.1 0-0.1-0.1v-1.8q0 0 0.1-0.1h5.6q0.1 0.1 0.1 0.1v1.8q0 0.1-0.1 0.1z"/><path class="â" d="m342.3 330h-5.6q-0.1 0-0.1-0.1v-1.8q0 0 0.1 0h5.6q0.1 0 0.1 0v1.8q0 0.1-0.1 0.1z"/><path class="ã" d="m344.7 324.9l-0.3-2.1l5.6-1.3l6.9-3.4l7.3-7.9h7.6l6.7-1.7l7.2-8l7.5-4.5l14.1-1.7l6.1-5.9l1.2 1.7l-6.5 6.3l-14.5 1.7l-6.9 4.2l-7.3 8.2l-7.4 1.9h-7l-7.2 7.6l-7.2 3.6z"/><path class="ä" d="m377.5 466.7q-1 10.3-5.6 12.3c-4.5 2-20.1 1.5-22-1.4q-1.9-2.8 0-11.6z"/><path class="å" d="m390.8 467.7c4.4 2.9 17.1 0.2 21.4 4.2c4.2 4-2.4 6.1-4.5 8c-2.1 1.9-6.8 0-19 1.8c-12.3 1.7-16 0.7-18.7 0q-2.7-0.8-1.7-12.6q18.2-4.4 22.5-1.4z"/><path class="æ" d="m368.4 403.2l0.8 63.9q-5.3 4.4-13.4 2q-8.2-2.3-7.2-6.6l-3.6-53.6z"/><path class="ç" d="m281.8 242q1.2 8.8 0.7 10q-0.5 1.2-0.7 2.2q1.8 4.5 1.6 5.5c-0.3 1-2.4 12.5-3.5 13.9c-1.1 1.3-5 0.6-5.6 1q-0.6 0.4 0 5.6h-22.9q3.4-17.4 2.4-23.5c-0.9-6 4.7-12.1 10.3-14.2q5.5-2 17.7-0.5z"/><path class="è" d="m284.7 238.4c1.7 3.7-2.8 7.6-5.8 8.1c-3.1 0.5-0.9 7.1-3.4 8c-2.4 0.9-0.6 6.8-1.8 7.1c-1.3 0.3-2-0.1-2.3-1.3c-0.2-1.3-2.8-6.7-4-6.7c-1.2 0-4 3.3-1.2 6.7c2.8 3.3-0.5 6.3-3.8 6.8c-3.3 0.6-8.6 0.6-10.2-0.8c-1.6-1.4-4-5-5.4-10.1q-1.3-5 3.7-9.7q-1.6-9.9 6.2-11.1c7.7-1.2 25.6-2.2 28 3z"/><path class="é" d="m236.8 348.6h250.1c1.7 0 3.1 1.4 3.1 3.1v122.3c0 1.7-1.4 3.1-3.1 3.1h-64.8c-1.7 0-3.1-1.4-3.1-3.1v-108.9c0-1.7-1.3-3.1-3-3.1h-166.3c-1.7 0-3 1.4-3 3.1v108.9c0 1.7-1.4 3.1-3.1 3.1h-6.8c-1.7 0-3-1.4-3-3.1v-122.3c0-1.7 1.3-3.1 3-3.1z"/><path class="ê" d="m429.3 366.1h52.3v102.9h-52.3z"/><g style="opacity:.7"><path class="o" d="m432.7 393.4h45.6v1.9h-45.6z"/><path class="o" d="m432.7 409.3h45.6v1.9h-45.6z"/><path class="o" d="m432.7 425.2h45.6v1.9h-45.6z"/><path class="o" d="m432.7 441.1h45.6v1.9h-45.6z"/><path class="o" d="m432.7 457h45.6v1.9h-45.6z"/><path class="o" d="m459.5 402.8h-8.1q0 0-0.1-0.1v-2.2q0.1-0.1 0.1-0.1h8.1q0.1 0 0.1 0.1v2.2q0 0.1-0.1 0.1z"/><path class="o" d="m432.7 376.2h45.6v1.8h-45.6z"/><path class="o" d="m459.5 385.5h-8.1q0 0-0.1-0.1v-2.2q0.1-0.1 0.1-0.1h8.1q0.1 0 0.1 0.1v2.2q0 0.1-0.1 0.1z"/><path class="o" d="m459.5 419.4h-8.1q0 0-0.1-0.1v-2.2q0.1-0.1 0.1-0.1h8.1q0.1 0 0.1 0.1v2.2q0 0.1-0.1 0.1z"/><path class="o" d="m459.5 436h-8.1q0 0-0.1-0.1v-2.1q0.1-0.1 0.1-0.1h8.1q0.1 0 0.1 0.1v2.1q0 0.1-0.1 0.1z"/><path class="o" d="m459.5 452.7h-8.1q0 0-0.1-0.1v-2.2q0.1-0.1 0.1-0.1h8.1q0.1 0 0.1 0.1v2.2q0 0.1-0.1 0.1z"/></g><path class="ë" d="m394.1 409.2q-3.4 18.1-2.3 59.9q-5.9 2.8-13.3 2.8q-7.4 0-10.2-2.8q0.3-10.3-0.6-27.5q0-1-0.1-2c-0.2-6.6 0.1-12.8 0.5-17.9q0.1-0.3 0.1-0.5q0.6-7.2 1.5-12q-0.3 0-0.9 0c-6.5 0.4-48 3.1-55.5 3.1c-8.2 0-37.2 6.5-47.1 0q-9.9-6.5-10.7-23.3q40.4 6.4 61.6-18.3q38.1 0.5 58.3 3.3c7.2 1.1 12.1 3.6 15.3 7.2c5.5 6.4 5.6 16.4 3.4 28z"/><path class="ì" d="m394.1 409.2q-3.4 18.1-2.3 59.9q-5.9 2.8-13.3 2.8q-7.4 0-10.2-2.8q0.3-10.3-0.6-27.5q0-1-0.1-2c0.2-6.2 0.3-12.4 0.5-17.9q0.1-0.3 0.1-0.5c0.1-3.3 0.2-6.4 0.3-9q0.1-1.5 0.3-3q2.8-17.9 21.8-28h0.1c5.5 6.4 5.6 16.4 3.4 28z"/><path class="í" d="m258.6 331.3l-17.2 12q-6.4-3.7-14-23.2q-7.5-19.5-1-26.7z"/><path class="î" d="m250.7 276.1q24.6-0.9 26.4 0.7q1.9 1.6 3.2 4.6q17.8-0.2 20.4 2.1q2.6 2.3 17.7 87.3q-2.8 12.9-31.9 19.2q-29.2 6.4-30.3-4.8q-30.1-86.1-29.8-91.8c0.2-5.7 8.8-11.7 15-12q6.1-0.2 9.3-5.3z"/><path class="ï" d="m334.4 338.2l28.4-1.4q2.5 0 3.7 4.9q1.1 5-4.4 9.1q-36.2 4.3-38.2 2.6q-2-1.6 10.5-15.2z"/><path class="ð" d="m334.4 338.2q2.3 3.2-1.1 11c-3.3 7.8-13.5 2.4-14.9 2.4c-1.5 0-17.6-27.1-22.9-45.1c-5.4-17.9-1.7-21.6 5.2-23q11.3-2.3 33.7 54.7z"/><path class="ñ" d="m363.9 338.2q12.2-1.7 18.8 2.1q6.6 3.9 7 11.3h-14q-2.5-3.8-5.5-3.4q-2.9 0.3-6.3-0.4q3.1-8.2 0-9.6z"/><path class="ò" d="m339.1 500.5v5.2c0 1.4-1.1 2.5-2.4 2.5h-0.4c-1.4 0-2.5-1.1-2.5-2.4v-3.2c-0.1-1.6-1.3-3-2.9-3.3l-35.5-6.1v12.7c0 1.3-1 2.3-2.3 2.3h-2.5h-2.6c-1.2 0-2.2-1-2.2-2.3v-12.7l-35.6 6.1c-1.6 0.3-2.8 1.7-2.8 3.3l-0.1 3.2c0 1.3-1.1 2.4-2.4 2.4h-0.4c-1.4 0-2.5-1.1-2.5-2.5v-5.2c0-2.4 1.5-4.5 3.8-5.2l34.4-10.8c0.4-2.4 5.7-2.1 10.4-1.3c4.6-0.8 10-1.1 10.3 1.3l34.4 10.8c2.3 0.7 3.8 2.8 3.8 5.2z"/><path class="ó" d="m284.7 428.5h11.8v51.7h-11.8z"/><path class="ô" d="m302.7 429.5h-25.7c-0.4 0-0.7-0.2-0.7-0.6v-8.2h26.9v8.3c0 0.3-0.2 0.5-0.5 0.5z"/><path class="õ" d="m279.8 477.1h21.6v9.6h-21.6z"/><path class="ö" d="m264.9 318.8c15.8 3.1 35.2 64.2 37.5 78.8q2.3 14.7 18.2 24.5l-82.3-2.4c-9.4-0.3-17.6-6.2-20.8-15l-29.5-81.9q61-7.1 76.9-4z"/><path class="÷" d="m191.3 315.5h75.9c6.2 0 11.7 3.9 13.8 9.7l29.3 78.9c1.3 3.7 4.8 6.1 8.7 6.1h45.8c2.4 0 4.4 2 4.4 4.4v2.2c0 2.9-2.4 5.3-5.3 5.3h-46.5c-6.4 0-12.1-4-14.3-10.1l-29.1-81.1c-1.8-5-6.5-8.3-11.8-8.3h-74.2z"/></svg>