<?xml version="1.0" encoding="UTF-8" standalone="no"?>
<!-- Created with Inkscape (http://www.inkscape.org/) -->

<svg
   width="291.84186mm"
   height="282.87735mm"
   viewBox="0 0 291.84186 282.87734"
   version="1.1"
   id="svg5"
   inkscape:version="1.1.1 (3bf5ae0d25, 2021-09-20)"
   sodipodi:docname="Job Seeker4.svg"
   xmlns:inkscape="http://www.inkscape.org/namespaces/inkscape"
   xmlns:sodipodi="http://sodipodi.sourceforge.net/DTD/sodipodi-0.dtd"
   xmlns="http://www.w3.org/2000/svg"
   xmlns:svg="http://www.w3.org/2000/svg">
  <sodipodi:namedview
     id="namedview7"
     pagecolor="#ffffff"
     bordercolor="#666666"
     borderopacity="1.0"
     inkscape:pageshadow="2"
     inkscape:pageopacity="0.0"
     inkscape:pagecheckerboard="0"
     inkscape:document-units="mm"
     showgrid="false"
     inkscape:zoom="0.71446409"
     inkscape:cx="163.75911"
     inkscape:cy="507.3733"
     inkscape:window-width="1920"
     inkscape:window-height="991"
     inkscape:window-x="-9"
     inkscape:window-y="-9"
     inkscape:window-maximized="1"
     inkscape:current-layer="layer3" />
  <defs
     id="defs2">
    <linearGradient
       id="paint0_linear_687_4"
       x1="126.302"
       y1="200.578"
       x2="482"
       y2="200.578"
       gradientUnits="userSpaceOnUse">
      <stop
         stop-color="white"
         stop-opacity="0.2"
         id="stop452" />
      <stop
         offset="1"
         stop-color="white"
         stop-opacity="0.702"
         id="stop454" />
    </linearGradient>
  </defs>
  <g
     inkscape:label="Layer 1"
     inkscape:groupmode="layer"
     id="layer1"
     transform="translate(-15.435503,4.9742099)">
    <g
       style="fill:none"
       id="g26"
       transform="matrix(0.33635844,0,0,0.33635844,41.760116,17.898161)">
      <path
         d="M 75.9563,2.5666 C 20.2883,91.913 70.9467,182.124 51.3573,319.742 31.7678,457.36 -46.208,522.674 39.0998,631.781 124.408,740.888 381.49,819.351 556.462,741.798 752.243,687.047 807.5,476 784.5,388 761.5,300 667.439,316.27 556.462,223.35 445.486,130.431 436.057,-3.94431 336.815,-37.6426 210.248,-80.6268 131.624,-86.7798 75.9563,2.5666 Z"
         fill="#e1ebfd"
         fill-opacity="0.34"
         id="path17" />
    </g>
  </g>
  <g
     inkscape:groupmode="layer"
     id="layer2"
     inkscape:label="Layer 2"
     transform="translate(-15.435503,4.9742099)">
    <g
       style="fill:none"
       id="g46"
       transform="matrix(0.35512806,0,0,0.3665245,75.670399,49.643245)">
      <path
         opacity="0.05"
         d="M 64.1351,56.8233 C 23.1945,120.873 46.5824,165.746 32.176,264.399 17.7696,363.053 -30.562,425.063 32.1761,503.279 94.9141,581.495 228.003,628.417 343.169,597.058 458.336,565.699 541.819,486.385 565.142,382.14 588.465,277.895 518.08,246.694 436.464,180.078 354.849,113.463 312.495,47.0828 248.635,18.2581 184.774,-10.5666 105.075,-7.22612 64.1351,56.8233 Z"
         fill="#46a3fd"
         id="path37" />
    </g>
  </g>
  <g
     inkscape:groupmode="layer"
     id="layer3"
     inkscape:label="Layer 3"
     transform="translate(-15.435503,4.9742099)">
    <g
       style="fill:none"
       id="g564"
       transform="matrix(0.49497649,0,0,0.49497649,0.95452078,15.341003)">
      <path
         d="M 333.31,366.578 H 132.527 c -1.038,0 -2.06,-0.259 -2.972,-0.755 -0.912,-0.495 -1.685,-1.211 -2.25,-2.081 -0.565,-0.871 -0.904,-1.869 -0.984,-2.903 -0.081,-1.035 0.098,-2.074 0.521,-3.021 L 269.303,38.2717 c 0.489,-1.0996 1.286,-2.0338 2.295,-2.6895 1.009,-0.6557 2.186,-1.0047 3.39,-1.0048 h 200.787 c 1.038,-10e-5 2.059,0.2593 2.971,0.7546 0.912,0.4953 1.686,1.2107 2.251,2.0813 0.565,0.8705 0.903,1.8685 0.984,2.9032 0.081,1.0346 -0.098,2.0731 -0.52,3.021 L 339,362.883 c -0.49,1.1 -1.288,2.035 -2.298,2.69 -1.01,0.656 -2.188,1.005 -3.392,1.005 z"
         fill="url(#paint0_linear_687_4)"
         id="path256"
         style="fill:url(#paint0_linear_687_4)" />
      <path
         d="M 390.733,219.842 455.529,74.504 c 0.363,-0.8117 0.517,-1.7013 0.448,-2.5876 -0.069,-0.8864 -0.359,-1.7414 -0.843,-2.4872 -0.484,-0.7459 -1.146,-1.3588 -1.928,-1.7831 C 452.425,67.2218 451.55,66.9997 450.661,67 H 268.853 c -3.302,-5e-4 -6.534,0.9561 -9.305,2.7542 -2.77,1.7982 -4.96,4.3606 -6.304,7.3774 L 187.463,224.672 c -0.362,0.812 -0.516,1.702 -0.447,2.588 0.069,0.886 0.359,1.741 0.843,2.487 0.483,0.746 1.146,1.359 1.928,1.783 0.781,0.425 1.656,0.647 2.545,0.646 h 179.39 c 4.022,0.001 7.958,-1.163 11.331,-3.352 3.374,-2.189 6.041,-5.309 7.68,-8.982 z"
         fill="#ffffff"
         id="path258" />
      <path
         d="M 370.648,240.778 435.444,95.4398 c 0.363,-0.8117 0.517,-1.7013 0.448,-2.5876 -0.069,-0.8864 -0.359,-1.7414 -0.843,-2.4872 -0.484,-0.7459 -1.146,-1.3588 -1.928,-1.7831 -0.781,-0.4243 -1.656,-0.6464 -2.545,-0.6461 H 248.767 c -3.302,-3e-4 -6.534,0.9564 -9.304,2.7545 -2.77,1.7982 -4.96,4.3605 -6.304,7.3771 L 167.378,245.608 c -0.362,0.812 -0.516,1.701 -0.447,2.588 0.069,0.886 0.359,1.741 0.843,2.487 0.484,0.746 1.146,1.359 1.928,1.783 0.781,0.424 1.656,0.647 2.545,0.646 h 179.39 c 4.022,0.001 7.957,-1.164 11.331,-3.353 3.374,-2.189 6.041,-5.308 7.68,-8.981 z"
         stroke="#000000"
         stroke-width="0.3"
         stroke-miterlimit="10"
         id="path260" />
      <path
         d="m 300.508,147.639 c 17.087,-14.811 21.916,-37.227 10.786,-50.0663 -11.13,-12.8395 -34.004,-11.2408 -51.091,3.5703 -17.087,14.812 -21.916,37.228 -10.786,50.067 11.13,12.84 34.004,11.241 51.091,-3.571 z"
         fill="#e6f4ff"
         id="path262" />
      <path
         d="m 298.136,144.904 c 15.076,-13.069 19.337,-32.847 9.516,-44.176 -9.82,-11.3295 -30.003,-9.9192 -45.079,3.15 -15.077,13.068 -19.337,32.847 -9.517,44.176 9.821,11.329 30.003,9.919 45.08,-3.15 z"
         fill="#94c3ff"
         id="path264" />
      <path
         d="m 280.929,130.66 c 0,0 -16.455,2.72 -23.481,5.49 -4.771,2.873 -5.528,5.157 -6.669,8.585 l -0.017,0.034 c 3.826,6.688 11.107,10.938 20.613,10.938 12.28,0 24.914,-7.086 32.995,-17.378 -4.398,-6.461 -23.441,-7.669 -23.441,-7.669 z"
         fill="#1688f3"
         id="path266" />
      <path
         d="m 275.142,123.656 -2.838,11.988 c -0.108,0.315 -0.145,0.65 -0.109,0.981 0.036,0.331 0.144,0.65 0.316,0.935 0.173,0.285 0.406,0.528 0.683,0.713 0.277,0.185 0.591,0.306 0.921,0.356 3.326,0.523 6.727,-0.218 9.534,-2.078 0.546,-0.337 1.008,-0.794 1.352,-1.335 0.344,-0.542 0.56,-1.154 0.634,-1.791 0.398,-5.595 1.534,-17.064 1.534,-17.064 z"
         fill="#ffffff"
         id="path268" />
      <path
         d="m 272.583,110.953 c 0,0 -7.728,15.648 -6.224,19.857 1.739,2.869 17.278,-3.579 19.824,-7.769 2.545,-4.191 8.39,-11.794 3.837,-16.546 -4.553,-4.752 -11.59,-3.14 -17.437,4.458 z"
         fill="#ffffff"
         id="path270" />
      <path
         d="m 272.584,110.953 c 0,0 -1.361,-5.528 3.316,-8.785 4.678,-3.2569 10.683,-2.6058 12.843,0.651 0.858,1.199 1.641,2.45 2.344,3.745 0.717,0.191 1.374,0.559 1.911,1.072 0.536,0.512 0.934,1.152 1.157,1.859 0.765,2.443 -4.103,8.631 -6.083,10.422 -1.98,1.79 -1.57,1.838 -1.57,1.838 l -0.663,-0.862 c 0.199,-2.534 0.645,-5.043 1.332,-7.49 0.259,-1.465 -1.415,-3.579 -4.368,-4.071 -2.953,-0.491 -4.04,2.263 -10.219,1.621 z"
         fill="#0c0a37"
         id="path272" />
      <path
         d="m 287.651,118.074 c 0.273,-0.532 0.713,-0.961 1.253,-1.219 0.539,-0.259 1.149,-0.333 1.735,-0.213 1.9,0.635 -1.895,6.616 -3.907,6.2 -1.925,-0.493 0.919,-4.768 0.919,-4.768 z"
         fill="#ffffff"
         id="path274" />
      <path
         d="m 285.772,131.153 c 0,0 -4.13,4.559 -8.196,5.862 -0.714,0.217 -1.771,1.629 -1.771,1.629 l -0.741,-1.954 c 0,0 -2.791,-1.628 -1.98,-4.451 l -0.56,0.435 -1.492,3.694 c -0.517,1.55 -0.865,3.151 -1.039,4.776 l 3.739,-2.063 c 1.327,0.426 2.747,0.464 4.094,0.108 0,0 0.774,2.606 1.471,2.823 0.697,0.217 6.35,-5.103 7.203,-6.948 0.58,-1.14 0.834,-2.418 0.733,-3.694 z"
         fill="#ffffff"
         id="path276" />
      <path
         opacity="0.39"
         d="m 405.022,138.038 h -78.759 c -2.417,0 -3.661,-1.962 -2.781,-4.376 l 11.147,-30.628 c 0.479,-1.219 1.294,-2.278 2.35,-3.052 1.056,-0.7743 2.311,-1.2329 3.618,-1.3226 h 78.758 c 2.417,0 3.664,1.9626 2.784,4.3746 l -11.148,30.628 c -0.479,1.219 -1.294,2.278 -2.351,3.052 -1.057,0.775 -2.311,1.234 -3.618,1.324 z"
         fill="#a1c2ff"
         id="path278" />
      <path
         d="m 409.571,112.515 h -67.819 l 1.195,-3.282 h 67.824 z"
         fill="#94c3ff"
         id="path280" />
      <path
         d="m 379.802,120.172 h -40.837 l 1.195,-3.281 h 40.838 z"
         fill="#94c3ff"
         id="path282" />
      <path
         d="m 347.018,127.1 h -10.574 l 1.195,-3.282 h 10.574 z"
         fill="#94c3ff"
         id="path284" />
      <path
         d="m 329.91,152.126 c -0.593,1.375 -1.55,2.561 -2.769,3.43 -1.219,0.868 -2.653,1.387 -4.145,1.499 -2.724,0 -4.041,-2.205 -2.938,-4.929 0.594,-1.374 1.553,-2.559 2.773,-3.428 1.219,-0.868 2.653,-1.386 4.146,-1.498 2.715,0 4.034,2.205 2.933,4.926 z"
         fill="#94c3ff"
         id="path286" />
      <path
         d="m 347.028,152.126 c -0.593,1.375 -1.552,2.562 -2.771,3.43 -1.22,0.869 -2.654,1.387 -4.147,1.499 -2.723,0 -4.041,-2.205 -2.938,-4.929 0.594,-1.374 1.553,-2.559 2.773,-3.428 1.22,-0.868 2.654,-1.386 4.147,-1.498 2.721,0 4.037,2.205 2.936,4.926 z"
         fill="#94c3ff"
         id="path288" />
      <path
         d="m 364.147,152.126 c -0.593,1.375 -1.551,2.562 -2.771,3.43 -1.219,0.869 -2.654,1.387 -4.147,1.499 -2.723,0 -4.04,-2.205 -2.938,-4.929 0.594,-1.374 1.553,-2.559 2.773,-3.428 1.22,-0.868 2.654,-1.386 4.147,-1.498 2.721,0 4.037,2.205 2.936,4.926 z"
         fill="#94c3ff"
         id="path290" />
      <path
         d="m 381.266,152.126 c -0.593,1.375 -1.551,2.562 -2.771,3.43 -1.219,0.869 -2.653,1.387 -4.147,1.499 -2.723,0 -4.04,-2.205 -2.938,-4.929 0.595,-1.374 1.554,-2.559 2.773,-3.428 1.22,-0.868 2.654,-1.386 4.147,-1.498 2.721,0 4.037,2.205 2.936,4.926 z"
         fill="#72d34d"
         id="path292" />
      <path
         opacity="0.39"
         d="m 398.384,152.126 c -0.593,1.376 -1.552,2.562 -2.772,3.431 -1.22,0.869 -2.655,1.387 -4.148,1.498 -2.721,0 -4.041,-2.205 -2.937,-4.929 0.594,-1.374 1.553,-2.559 2.773,-3.428 1.22,-0.868 2.654,-1.386 4.147,-1.498 2.722,0 4.038,2.205 2.937,4.926 z"
         fill="#a1c2ff"
         id="path294" />
      <path
         opacity="0.39"
         d="m 357.71,167.107 -21.731,22.585 -22.519,8.932 25.521,18.733 25.648,-21.885 z"
         fill="#a1c2ff"
         id="path296" />
      <path
         opacity="0.7"
         d="m 352.561,180.225 -16.582,9.467 -14.024,8.864 19.021,13.659 17.983,-16.427 z"
         fill="#a1c2ff"
         id="path298" />
      <path
         d="m 357.71,167.107 -21.731,22.585 -22.519,8.932 25.45,18.908 25.719,-22.06 z"
         stroke="#1688f3"
         stroke-width="0.281"
         stroke-miterlimit="10"
         id="path300" />
      <path
         d="m 347.502,197.571 c -0.19,0.439 -0.497,0.819 -0.887,1.096 -0.389,0.278 -0.848,0.444 -1.325,0.48 -0.871,0 -1.292,-0.706 -0.94,-1.576 0.19,-0.439 0.496,-0.819 0.886,-1.096 0.39,-0.278 0.849,-0.444 1.326,-0.48 0.872,-0.002 1.292,0.703 0.94,1.576 z"
         fill="#1688f3"
         id="path302" />
      <path
         d="m 326.136,181.987 19.232,15.232 -34.322,1.751"
         stroke="#1688f3"
         stroke-width="0.281"
         stroke-miterlimit="10"
         id="path304" />
      <path
         d="m 337.491,222.779 8.577,-25.561 22.627,-2.276"
         stroke="#1688f3"
         stroke-width="0.281"
         stroke-miterlimit="10"
         id="path306" />
      <path
         d="m 358.982,163.954 -12.915,33.265"
         stroke="#1688f3"
         stroke-width="0.281"
         stroke-miterlimit="10"
         id="path308" />
      <path
         d="m 327.887,181.696 c -0.319,0.737 -0.834,1.374 -1.488,1.84 -0.655,0.466 -1.425,0.744 -2.226,0.805 -1.46,0 -2.166,-1.185 -1.576,-2.645 0.319,-0.738 0.833,-1.375 1.488,-1.841 0.655,-0.466 1.425,-0.744 2.226,-0.804 1.459,0 2.165,1.184 1.576,2.645 z"
         fill="#94c3ff"
         id="path310" />
      <path
         d="m 312.323,198.986 c -0.318,0.738 -0.833,1.375 -1.488,1.841 -0.655,0.467 -1.425,0.745 -2.227,0.804 -1.461,0 -2.167,-1.183 -1.578,-2.645 0.319,-0.737 0.834,-1.373 1.489,-1.839 0.654,-0.466 1.424,-0.744 2.225,-0.803 1.465,0 2.17,1.183 1.579,2.642 z"
         fill="#72d34d"
         id="path312" />
      <path
         d="m 339.991,223.194 c -0.319,0.738 -0.834,1.374 -1.488,1.84 -0.655,0.466 -1.424,0.745 -2.226,0.805 -1.46,0 -2.165,-1.184 -1.575,-2.645 0.318,-0.738 0.833,-1.374 1.488,-1.84 0.654,-0.467 1.424,-0.745 2.225,-0.805 1.461,0 2.165,1.185 1.576,2.645 z"
         fill="#94c3ff"
         id="path314" />
      <path
         d="m 371.776,194.976 c -0.319,0.737 -0.833,1.373 -1.488,1.839 -0.654,0.467 -1.423,0.745 -2.224,0.806 -1.461,0 -2.166,-1.185 -1.576,-2.645 0.318,-0.738 0.833,-1.375 1.487,-1.841 0.655,-0.467 1.425,-0.745 2.227,-0.804 1.458,0 2.163,1.182 1.574,2.645 z"
         fill="#94c3ff"
         id="path316" />
      <path
         d="m 361.92,163.072 c -0.319,0.738 -0.834,1.374 -1.488,1.84 -0.655,0.466 -1.424,0.745 -2.226,0.805 -1.46,0 -2.166,-1.185 -1.576,-2.645 0.319,-0.738 0.833,-1.375 1.488,-1.841 0.655,-0.466 1.425,-0.744 2.226,-0.804 1.459,0 2.165,1.183 1.576,2.645 z"
         fill="#72d34d"
         id="path318" />
      <path
         d="m 301.875,185.14 h -65.93 l 5.04,-12.469 h 65.929 z"
         fill="#1688f3"
         id="path320" />
      <path
         opacity="0.39"
         d="m 262.173,213.201 h -37.568 l 2.16,-5.345 h 37.568 z"
         fill="#a1c2ff"
         id="path322" />
      <path
         opacity="0.39"
         d="m 256.544,202.513 h -27.619 l 5.039,-12.468 h 27.62 z"
         fill="#a1c2ff"
         id="path324" />
      <path
         d="m 406.431,337.499 32.263,-72.362 c 0.18,-0.404 0.256,-0.847 0.221,-1.287 -0.035,-0.441 -0.179,-0.866 -0.42,-1.237 -0.241,-0.371 -0.571,-0.676 -0.959,-0.887 -0.389,-0.211 -0.824,-0.322 -1.266,-0.322 h -90.522 c -1.643,10e-4 -3.251,0.477 -4.63,1.372 -1.378,0.896 -2.468,2.171 -3.137,3.671 l -32.751,73.461 c -0.18,0.405 -0.256,0.847 -0.221,1.288 0.035,0.441 0.18,0.866 0.42,1.237 0.241,0.371 0.571,0.676 0.959,0.887 0.389,0.211 0.824,0.322 1.266,0.322 h 89.318 c 2.001,-10e-4 3.96,-0.582 5.639,-1.672 1.678,-1.09 3.005,-2.643 3.82,-4.471 z"
         fill="#ffffff"
         id="path326" />
      <path
         opacity="0.39"
         d="m 388.076,319.589 c 15.24,-12.464 20.831,-30.839 12.487,-41.042 -8.344,-10.202 -27.463,-8.369 -42.704,4.096 -15.24,12.464 -20.831,30.839 -12.487,41.042 8.344,10.202 27.463,8.369 42.704,-4.096 z"
         fill="#a1c2ff"
         id="path328" />
      <path
         d="m 375.389,304.144 c 0,0 14.678,7.294 16.232,13.978 1.554,6.685 -4.964,24.31 -4.964,24.31 h -58.338 c 0,0 9.563,-20.665 16.998,-25.524 7.434,-4.859 21.784,-8.574 21.784,-8.574 z"
         fill="#4385ff"
         id="path330" />
      <path
         d="m 369.371,299.398 -4.578,9.892 c -0.577,1.237 -0.231,2.367 0.834,2.69 2.648,0.734 5.477,0.408 7.888,-0.908 1.021,-0.503 1.801,-1.39 2.171,-2.467 1.411,-4.7 4.552,-14.305 4.552,-14.305 z"
         fill="#94c3ff"
         id="path332" />
      <path
         d="m 369.859,288.417 c 0,0 -9.131,12.551 -8.774,16.244 0.802,2.583 14.257,-1.476 17.076,-4.799 2.819,-3.322 8.896,-9.229 6.257,-13.659 -2.639,-4.431 -8.482,-3.692 -14.559,2.214 z"
         fill="#94c3ff"
         id="path334" />
      <path
         d="m 370.246,286.574 c -0.117,0.159 -0.226,0.324 -0.326,0.494 -0.53,0.893 -1.316,2.694 0.878,2.812 l 2.928,0.157 c 0,0 4.699,-2.675 6.545,0.157 1.372,2.832 -3.103,4.563 -2.731,5.98 0.372,1.416 0.183,1.1 -0.449,1.886 -0.744,1.315 -1.881,2.363 -3.251,2.997 -2.114,0.943 -3.779,0.786 -5.799,1.889 -2.02,1.102 -5.917,-0.159 -6.321,-1.103 -0.941,-0.786 -1.482,0.944 -2.085,2.046 -0.602,1.103 -2.461,1.417 -0.674,2.832 1.787,1.415 3.109,2.046 6.234,0.157 1.905,-1.31 4.082,-2.171 6.368,-2.518 2.708,-0.525 5.108,-2.079 6.696,-4.335 1.2,-1.963 1.587,-4.477 2.6,-5.426 1.012,-0.949 1.572,0 1.129,1.1 -0.443,1.1 3.842,-0.943 4.863,-4.248 1.02,-3.305 -0.775,-3.146 -0.955,-5.035 -0.18,-1.888 1.962,-4.091 -0.323,-5.821 -2.286,-1.729 -4.44,0.473 -5.252,-0.63 -0.812,-1.102 -4.371,-1.257 -7.212,1.103 -1.702,1.44 -2.778,3.484 -3.002,5.703"
         fill="#1688f3"
         id="path336" />
      <path
         d="m 380.313,294.854 c 0,0 1.233,-1.593 2.624,-0.943 1.366,0.708 -2.784,5.426 -4.281,4.898 -1.413,-0.592 1.657,-3.955 1.657,-3.955 z"
         fill="#94c3ff"
         id="path338" />
      <path
         d="m 360.74,302.309 c 0,0 1.341,-4.878 4.743,-5.507 3.402,-0.629 4.934,1.415 4.708,3.146 -0.049,0.52 0.044,1.043 0.269,1.514 0.225,0.472 0.574,0.873 1.009,1.162 0,0 -8.576,4.091 -10.729,-0.315 z"
         fill="#1688f3"
         id="path340" />
      <path
         d="m 365.85,435.187 32.261,-72.362 c 0.179,-0.404 0.255,-0.847 0.22,-1.288 -0.035,-0.441 -0.179,-0.866 -0.42,-1.237 -0.241,-0.371 -0.57,-0.675 -0.959,-0.887 -0.388,-0.211 -0.823,-0.322 -1.266,-0.322 h -90.519 c -1.644,0 -3.254,0.476 -4.633,1.372 -1.379,0.895 -2.47,2.17 -3.14,3.672 l -32.751,73.461 c -0.18,0.404 -0.256,0.847 -0.221,1.287 0.035,0.441 0.18,0.866 0.42,1.237 0.241,0.371 0.571,0.676 0.959,0.887 0.389,0.211 0.824,0.322 1.266,0.322 h 89.318 c 2.002,0 3.962,-0.58 5.642,-1.67 1.68,-1.09 3.008,-2.644 3.823,-4.472 z"
         fill="#ffffff"
         id="path342" />
      <path
         d="m 267.487,294.407 h -99.704 c -3.058,0 -4.537,-2.482 -3.3,-5.541 l 7.086,-17.54 c 0.668,-1.545 1.745,-2.879 3.116,-3.855 1.37,-0.977 2.982,-1.56 4.661,-1.686 h 99.703 c 3.058,0 4.537,2.479 3.3,5.541 l -7.087,17.54 c -0.667,1.545 -1.744,2.878 -3.115,3.855 -1.37,0.977 -2.982,1.56 -4.66,1.686 z"
         fill="#4385ff"
         id="path344" />
      <path
         d="m 266.708,281.482 h -85.856 l 1.678,-4.156 h 85.856 z"
         fill="#ffffff"
         id="path346" />
      <path
         d="m 186.852,5.53219 h -3.374 c -0.596,0 -0.885,-0.48256 -0.644,-1.07942 l 1.363,-3.37335 c 0.13,-0.30128 0.341,-0.561114 0.608,-0.751379 C 185.073,0.137776 185.387,0.0243331 185.715,0 h 3.371 c 0.597,0 0.885,0.482564 0.644,1.07942 l -1.362,3.37335 c -0.13,0.30133 -0.34,0.5613 -0.607,0.75161 -0.268,0.19032 -0.582,0.3037 -0.909,0.32781 z"
         fill="#f9fbfc"
         id="path348" />
      <path
         d="m 221.435,5.53219 h -3.374 c -0.596,0 -0.885,-0.48256 -0.644,-1.07942 l 1.363,-3.37335 c 0.13,-0.301026 0.34,-0.560718 0.607,-0.750974 C 219.654,0.13819 219.968,0.0246155 220.295,0 h 3.374 c 0.597,0 0.885,0.482564 0.644,1.07942 l -1.362,3.37335 c -0.131,0.30103 -0.341,0.56072 -0.608,0.75098 -0.267,0.19025 -0.581,0.30383 -0.908,0.32844 z"
         fill="#bfd9ff"
         id="path350" />
      <path
         d="m 180.425,21.442 h -3.373 c -0.597,0 -0.886,-0.4849 -0.645,-1.0817 l 1.363,-3.3711 c 0.13,-0.3016 0.34,-0.5619 0.608,-0.7525 0.268,-0.1907 0.582,-0.3046 0.91,-0.3292 h 3.371 c 0.597,0 0.885,0.4848 0.644,1.0817 l -1.361,3.3711 c -0.13,0.3014 -0.34,0.5616 -0.608,0.7522 -0.267,0.1907 -0.582,0.3046 -0.909,0.3295 z"
         fill="#bfd9ff"
         id="path352" />
      <path
         d="m 197.716,21.442 h -3.371 c -0.597,0 -0.886,-0.4849 -0.645,-1.0817 l 1.362,-3.3711 c 0.13,-0.3016 0.34,-0.5619 0.608,-0.7525 0.267,-0.1907 0.582,-0.3046 0.91,-0.3292 h 3.373 c 0.597,0 0.886,0.4848 0.644,1.0817 l -1.362,3.3711 c -0.13,0.3018 -0.341,0.5621 -0.609,0.7528 -0.268,0.1907 -0.582,0.3044 -0.91,0.3289 z"
         fill="#f394ca"
         id="path354" />
      <path
         d="m 215.008,21.442 h -3.373 c -0.597,0 -0.886,-0.4849 -0.645,-1.0817 l 1.363,-3.3711 c 0.13,-0.3016 0.34,-0.5619 0.608,-0.7525 0.268,-0.1907 0.582,-0.3046 0.91,-0.3292 h 3.371 c 0.597,0 0.885,0.4848 0.644,1.0817 l -1.362,3.3711 c -0.13,0.3013 -0.34,0.5613 -0.607,0.7519 -0.268,0.1907 -0.582,0.3047 -0.909,0.3298 z"
         fill="#f9fbfc"
         id="path356" />
      <path
         d="m 228.84,21.442 h -3.371 c -0.597,0 -0.886,-0.4849 -0.645,-1.0817 l 1.363,-3.3711 c 0.129,-0.3016 0.339,-0.5619 0.607,-0.7526 0.267,-0.1907 0.581,-0.3046 0.909,-0.3291 h 3.373 c 0.597,0 0.885,0.4848 0.644,1.0817 l -1.362,3.3711 c -0.13,0.3016 -0.341,0.5618 -0.608,0.7525 -0.268,0.1907 -0.583,0.3045 -0.91,0.3292 z"
         fill="#f9fbfc"
         id="path358" />
      <path
         d="m 173.997,37.3493 h -3.373 c -0.596,0 -0.886,-0.4848 -0.644,-1.0794 l 1.362,-3.3733 c 0.13,-0.3013 0.341,-0.5612 0.608,-0.7514 0.268,-0.1903 0.583,-0.3037 0.91,-0.3281 h 3.371 c 0.597,0 0.886,0.4826 0.644,1.0795 l -1.361,3.3733 c -0.131,0.3009 -0.341,0.5604 -0.608,0.7507 -0.268,0.1902 -0.582,0.3038 -0.909,0.3287 z"
         fill="#f9fbfc"
         id="path360" />
      <path
         d="m 160.163,37.3493 h -3.371 c -0.597,0 -0.886,-0.4848 -0.644,-1.0794 l 1.361,-3.3733 c 0.13,-0.3013 0.341,-0.5612 0.608,-0.7514 0.268,-0.1903 0.583,-0.3037 0.91,-0.3281 h 3.373 c 0.597,0 0.886,0.4826 0.645,1.0795 l -1.363,3.3733 c -0.131,0.3012 -0.341,0.561 -0.609,0.7512 -0.268,0.1902 -0.583,0.3037 -0.91,0.3282 z"
         fill="#f9fbfc"
         id="path362" />
      <path
         d="m 191.287,37.3493 h -3.371 c -0.597,0 -0.886,-0.4848 -0.644,-1.0794 l 1.362,-3.3733 c 0.13,-0.3014 0.34,-0.5613 0.607,-0.7516 0.267,-0.1904 0.582,-0.3037 0.909,-0.3279 h 3.373 c 0.597,0 0.886,0.4826 0.644,1.0795 l -1.362,3.3733 c -0.131,0.3012 -0.341,0.5609 -0.609,0.7511 -0.267,0.1902 -0.582,0.3038 -0.909,0.3283 z"
         fill="#f9fbfc"
         id="path364" />
      <path
         d="m 208.58,37.3493 h -3.373 c -0.597,0 -0.886,-0.4848 -0.644,-1.0794 l 1.362,-3.3733 c 0.131,-0.3013 0.341,-0.5612 0.609,-0.7514 0.267,-0.1903 0.582,-0.3037 0.909,-0.3281 h 3.371 c 0.597,0 0.886,0.4826 0.644,1.0795 l -1.362,3.3733 c -0.13,0.301 -0.34,0.5606 -0.607,0.7508 -0.268,0.1903 -0.582,0.3039 -0.909,0.3286 z"
         fill="#72d34d"
         id="path366" />
      <path
         d="m 167.569,53.2566 h -3.371 c -0.597,0 -0.886,-0.4826 -0.646,-1.0795 l 1.363,-3.3733 c 0.13,-0.3014 0.34,-0.5613 0.608,-0.7516 0.268,-0.1902 0.582,-0.3036 0.91,-0.3278 h 3.371 c 0.597,0 0.885,0.4825 0.645,1.0794 l -1.362,3.3733 c -0.131,0.3014 -0.341,0.5613 -0.609,0.7516 -0.267,0.1903 -0.582,0.3037 -0.909,0.3279 z"
         fill="#f9fbfc"
         id="path368" />
      <path
         d="m 188.226,317.825 h -4.754 c -0.841,0 -1.247,-0.681 -0.908,-1.524 l 1.92,-4.752 c 0.184,-0.425 0.48,-0.791 0.857,-1.06 0.377,-0.268 0.821,-0.429 1.282,-0.464 h 4.752 c 0.843,0 1.248,0.684 0.907,1.524 l -1.919,4.752 c -0.183,0.425 -0.479,0.792 -0.856,1.06 -0.377,0.269 -0.82,0.429 -1.281,0.464 z"
         fill="#4385ff"
         id="path370" />
      <path
         d="m 236.967,317.825 h -4.752 c -0.84,0 -1.248,-0.681 -0.907,-1.524 l 1.92,-4.752 c 0.184,-0.425 0.48,-0.791 0.857,-1.06 0.377,-0.268 0.82,-0.429 1.282,-0.464 h 4.752 c 0.84,0 1.247,0.684 0.907,1.524 l -1.92,4.752 c -0.184,0.425 -0.48,0.791 -0.857,1.06 -0.377,0.268 -0.82,0.429 -1.282,0.464 z"
         fill="#4385ff"
         id="path372" />
      <path
         d="m 179.164,340.248 h -4.753 c -0.84,0 -1.247,-0.684 -0.907,-1.524 l 1.92,-4.752 c 0.183,-0.425 0.48,-0.791 0.857,-1.06 0.377,-0.268 0.82,-0.429 1.282,-0.464 h 4.752 c 0.84,0 1.247,0.681 0.907,1.524 l -1.92,4.752 c -0.184,0.425 -0.48,0.791 -0.857,1.06 -0.377,0.268 -0.82,0.429 -1.281,0.464 z"
         fill="#bfd9ff"
         id="path374" />
      <path
         d="m 203.539,340.248 h -4.752 c -0.843,0 -1.248,-0.684 -0.908,-1.524 l 1.92,-4.752 c 0.183,-0.425 0.479,-0.792 0.856,-1.06 0.377,-0.269 0.821,-0.429 1.282,-0.464 h 4.752 c 0.843,0 1.248,0.681 0.908,1.524 l -1.92,4.752 c -0.184,0.425 -0.48,0.791 -0.857,1.06 -0.377,0.268 -0.82,0.429 -1.281,0.464 z"
         fill="#72d34d"
         id="path376" />
      <path
         d="m 227.909,340.248 h -4.752 c -0.843,0 -1.248,-0.684 -0.907,-1.524 l 1.919,-4.752 c 0.183,-0.425 0.48,-0.792 0.857,-1.06 0.376,-0.269 0.82,-0.429 1.281,-0.464 h 4.755 c 0.84,0 1.246,0.681 0.907,1.524 l -1.92,4.752 c -0.184,0.425 -0.481,0.792 -0.858,1.06 -0.377,0.269 -0.82,0.429 -1.282,0.464 z"
         fill="#bfd9ff"
         id="path378" />
      <path
         opacity="0.5"
         d="m 247.406,340.248 h -4.751 c -0.841,0 -1.248,-0.684 -0.908,-1.524 l 1.92,-4.752 c 0.183,-0.425 0.479,-0.792 0.856,-1.06 0.377,-0.269 0.821,-0.429 1.282,-0.464 h 4.754 c 0.841,0 1.247,0.681 0.908,1.524 l -1.92,4.752 c -0.184,0.425 -0.481,0.792 -0.858,1.06 -0.377,0.269 -0.821,0.429 -1.283,0.464 z"
         fill="#f43197"
         id="path380" />
      <path
         opacity="0.5"
         d="m 170.105,362.669 h -4.752 c -0.84,0 -1.246,-0.681 -0.907,-1.524 l 1.92,-4.752 c 0.184,-0.424 0.481,-0.79 0.858,-1.058 0.377,-0.269 0.82,-0.429 1.281,-0.463 h 4.752 c 0.84,0 1.248,0.681 0.907,1.521 l -1.92,4.747 c -0.183,0.426 -0.479,0.794 -0.856,1.063 -0.377,0.269 -0.821,0.43 -1.283,0.466 z"
         fill="#f43197"
         id="path382" />
      <path
         d="m 150.607,362.669 h -4.752 c -0.84,0 -1.246,-0.681 -0.907,-1.524 l 1.92,-4.752 c 0.184,-0.424 0.481,-0.79 0.858,-1.058 0.377,-0.269 0.82,-0.429 1.281,-0.463 h 4.752 c 0.84,0 1.248,0.681 0.907,1.521 l -1.92,4.752 c -0.183,0.425 -0.48,0.791 -0.857,1.06 -0.377,0.268 -0.82,0.429 -1.282,0.464 z"
         fill="#bfd9ff"
         id="path384" />
      <path
         d="m 194.478,362.669 h -4.752 c -0.843,0 -1.248,-0.681 -0.907,-1.524 l 1.919,-4.752 c 0.184,-0.424 0.48,-0.79 0.857,-1.058 0.377,-0.269 0.82,-0.429 1.282,-0.463 h 4.752 c 0.842,0 1.248,0.681 0.907,1.521 l -1.92,4.752 c -0.183,0.425 -0.479,0.792 -0.856,1.061 -0.377,0.268 -0.82,0.428 -1.282,0.463 z"
         fill="#bfd9ff"
         id="path386" />
      <path
         d="m 218.85,362.669 h -4.758 c -0.842,0 -1.248,-0.681 -0.907,-1.524 l 1.92,-4.752 c 0.184,-0.424 0.48,-0.79 0.857,-1.058 0.377,-0.268 0.82,-0.428 1.281,-0.463 h 4.754 c 0.841,0 1.247,0.681 0.908,1.521 l -1.92,4.752 c -0.184,0.424 -0.48,0.79 -0.856,1.059 -0.376,0.268 -0.818,0.429 -1.279,0.465 z"
         fill="#72d34d"
         id="path388" />
      <path
         d="m 161.046,385.086 h -4.752 c -0.841,0 -1.247,-0.681 -0.908,-1.524 l 1.92,-4.751 c 0.184,-0.425 0.481,-0.792 0.858,-1.06 0.377,-0.269 0.82,-0.429 1.282,-0.464 h 4.751 c 0.841,0 1.247,0.681 0.908,1.524 l -1.92,4.751 c -0.184,0.425 -0.48,0.792 -0.858,1.06 -0.377,0.269 -0.82,0.429 -1.281,0.464 z"
         fill="#72d34d"
         id="path390" />
      <path
         d="m 84.5181,130.393 c 0,0 -8.9229,0.596 -15.5945,9.604 -6.6717,9.009 3.0016,42.033 31.6934,55.378 18.682,7.339 20.016,-9.342 15.346,-21.017 -4.669,-11.675 -18.1859,-41.223 -31.4449,-43.965 z"
         fill="#ffffff"
         id="path392" />
      <path
         d="m 212.04,483.974 c 0,4.239 -40.919,7.676 -91.393,7.676 -50.4745,0 -91.3911,-3.437 -91.3911,-7.676 0,-4.239 40.9177,-7.674 91.3911,-7.674 50.473,0 91.393,3.437 91.393,7.674 z"
         fill="#bfd9ff"
         id="path394" />
      <path
         d="m 87.2574,459.139 c 0,0 1.9396,-4.156 9.14,-3.046 7.2006,1.109 8.0326,2.493 8.8636,6.094 0.832,3.601 3.323,7.48 4.984,8.312 1.661,0.833 7.757,4.984 12.743,5.815 4.986,0.832 5.542,3.878 4.431,5.264 -1.111,1.385 -19.943,2.493 -24.096,1.939 0,0 -14.126,-0.277 -17.4497,-1.385 -3.3237,-1.108 1.1071,-21.608 1.3841,-22.993 z"
         fill="#16142a"
         id="path396" />
      <path
         d="m 123.344,459.139 c 0,0 1.94,-4.156 9.141,-3.046 7.202,1.109 8.032,2.493 8.863,6.094 0.831,3.601 3.324,7.48 4.986,8.312 1.663,0.833 7.755,4.984 12.741,5.815 4.986,0.832 5.541,3.878 4.432,5.264 -1.11,1.385 -19.944,2.493 -24.098,1.939 0,0 -14.127,-0.277 -17.45,-1.385 -3.324,-1.108 1.103,-21.608 1.385,-22.993 z"
         fill="#16142a"
         id="path398" />
      <path
         d="m 80.5892,356.008 c -0.5265,-3.339 0.2057,-6.756 2.0549,-9.586 1.8491,-2.831 4.6833,-4.874 7.9532,-5.733 12.1137,-3.85 14.4067,1.748 18.0727,12.209 3.667,10.462 -3.097,109.261 -3.097,109.261 0,0 -14.7622,0.337 -18.3387,-1.776 0,0 -9.8672,-65.559 -9.1284,-81.524 0.7389,-15.965 2.4833,-22.851 2.4833,-22.851 z"
         fill="#2b3554"
         id="path400" />
      <path
         d="m 123.464,62.5267 0.034,0.0147 0.036,0.0091 v 0 1e-4 l 10e-4,2e-4 0.001,2e-4 0.013,0.0035 c 0.012,0.0034 0.032,0.0091 0.059,0.0172 0.054,0.0164 0.137,0.0427 0.246,0.0811 0.219,0.0767 0.542,0.2016 0.946,0.3907 0.809,0.3782 1.945,1.0134 3.225,2.035 2.559,2.0403 5.714,5.6351 8.002,11.8411 2.283,6.1882 2.677,15.9301 2.097,24.5664 -0.289,4.308 -0.818,8.315 -1.465,11.434 -0.324,1.561 -0.675,2.889 -1.037,3.918 -0.369,1.05 -0.727,1.719 -1.03,2.027 -0.674,0.685 -1.728,1.17 -3.19,1.422 -1.46,0.252 -3.283,0.265 -5.441,0.045 -4.315,-0.44 -9.885,-1.804 -16.388,-3.951 C 96.0805,111.929 91.4771,97.8862 89.0041,88.419 86.6947,79.5426 89.403,70.563 95.6119,65.059 101.803,59.5705 111.553,57.4751 123.464,62.5267 Z"
         fill="#ffffff"
         stroke="#000000"
         id="path402" />
      <path
         d="M 94.2676,131.519 100.914,107.7 c 0,0 13.295,-3.878 21.605,4.984 l 2.77,3.878 v 15.51 c -10.293,1.639 -20.794,1.452 -31.0214,-0.553 z"
         fill="#ffffff"
         id="path404" />
      <path
         d="m 75.7106,259.762 c -2.9657,20.667 -2.9657,41.653 0,62.32 4.9838,33.239 14.9572,36.562 24.096,36.562 9.1384,0 11.6324,-26.589 13.2944,-38.224 1.663,-11.635 8.313,-51.518 -4.156,-60.658 -12.4679,-9.14 -26.5882,-9.97 -33.2344,0 z"
         fill="#2b3554"
         id="path406" />
      <path
         d="m 110.61,298.816 c 0,0 -9.972,-26.591 7.478,-38.224 17.449,-11.634 30.744,-9.973 34.899,9.14 4.155,19.112 4.986,84.756 -0.831,98.052 -5.817,13.296 -26.59,-7.48 -41.546,-68.968 z"
         fill="#2b3f63"
         id="path408" />
      <path
         d="m 90.748,131.393 c 0,0 1.8564,-6.52 3.5189,-7.074 1.6624,-0.555 22.1581,-2.771 33.2371,3.876 4.984,3.878 4.431,6.649 4.431,6.649 0,0 -33.0711,-6.346 -41.187,-3.451 z"
         fill="#ffffff"
         id="path410" />
      <path
         d="m 151.658,259.76 c 0,0 1.668,4.003 0.666,5.338 -1.334,1.334 -39.03,14.678 -78.7343,5.004 -0.6685,0 0.9997,-6.672 0.9997,-6.672 z"
         fill="#4f2af5"
         id="path412" />
      <path
         d="m 126.397,357.813 c -0.156,-3.377 0.948,-6.693 3.097,-9.303 2.149,-2.61 5.191,-4.329 8.536,-4.823 12.468,-2.494 14.126,3.324 16.624,14.126 2.498,10.802 -12.286,105.01 -12.286,105.01 0,0 -16.31,0.94 -19.634,-1.554 0,0 -3.809,-65.227 -1.317,-81.02 2.493,-15.793 4.98,-22.436 4.98,-22.436 z"
         fill="#2b3f63"
         id="path414" />
      <path
         d="m 107.29,292.583 c 0,0 11.632,37.393 20.359,55.674"
         stroke="#2a2e59"
         stroke-width="0.666"
         stroke-miterlimit="10"
         id="path416" />
      <path
         d="m 86.0957,350.749 c 0,0 4.5705,-4.156 14.9573,0.416"
         stroke="#2a2e59"
         stroke-width="0.666"
         stroke-miterlimit="10"
         id="path418" />
      <path
         d="m 89.4199,354.904 c 2.0929,-0.93 4.4012,-1.267 6.6726,-0.974 2.2714,0.293 4.4185,1.205 6.2065,2.636"
         stroke="#2a2e59"
         stroke-width="0.666"
         stroke-miterlimit="10"
         id="path420" />
      <path
         d="m 104.791,361.552 -2.492,84.757"
         stroke="#2a2e59"
         stroke-width="0.666"
         stroke-miterlimit="10"
         id="path422" />
      <path
         d="m 119.956,113.722 c 0,0 2.908,7.479 12.671,6.234"
         stroke="#0c0a37"
         stroke-width="0.666"
         stroke-miterlimit="10"
         id="path424" />
      <path
         d="m 132.49,67.564 c 0,0 4.733,6.5077 5.029,10.3521 0.295,3.8443 -5.917,7.691 -6.804,10.0588 -0.886,2.3678 1.146,5.3383 0.259,6.8183 -0.641,1.4242 -1.036,2.9465 -1.168,4.5024 l 0.304,3.3484 c 0.054,0.591 -0.113,1.181 -0.468,1.657 -0.356,0.476 -0.875,0.803 -1.457,0.919 l -0.709,0.141 c -0.494,0.102 -1.007,0.026 -1.45,-0.213 -0.444,-0.239 -0.788,-0.627 -0.975,-1.095 -1.064,-2.672 -3.262,-7.6643 -4.986,-8.0949 -2.367,-0.5911 -4.733,3.5488 -5.621,5.6189 -0.5,1.168 -1.757,4.321 -2.759,6.85 -0.43,1.084 -1.157,2.023 -2.098,2.711 -0.941,0.688 -2.057,1.096 -3.219,1.177 -2.245,0.256 -4.512,0.252 -6.7552,-0.012 C 97.5429,111.712 86.9356,92.1114 86.6378,82.6459 86.3399,73.1804 92.8499,63.7126 99.6532,60.7561 106.456,57.7995 119.771,55.1419 132.49,67.564 Z"
         fill="#0c0a37"
         id="path426" />
      <path
         d="m 84.5703,149.791 c 0,2.663 11.1475,42.817 9.3731,49.917 -1.7744,7.1 -6.6716,56.716 -6.6716,56.716"
         stroke="#6060e7"
         stroke-width="0.666"
         stroke-miterlimit="10"
         id="path428" />
      <path
         d="m 115.461,54.6777 c 0,0 6.507,0.2494 8.758,-3.0016 2.251,-3.251 9.508,-4.0037 14.762,1.2503 5.254,5.254 5.004,15.008 0.5,18.5153 0,0 5.254,-1.0009 6.003,2.7534 0.75,3.7543 -5.753,9.5059 -13.507,11.2584 0,0 -12.511,-3.5015 -16.263,-1.2503 -3.752,2.2512 -29.0243,-0.2505 -29.0243,-0.2505 0,0 -5.5045,-5.0047 -4.0037,-9.5082 1.5008,-4.5036 3.0017,0.2505 3.0017,0.2505 0,0 -1.2526,-6.2549 7.0052,-15.262 8.2581,-9.0072 19.7661,-4.0049 22.7681,-4.7553 z"
         fill="#0c0a37"
         id="path430" />
      <path
         fill-rule="evenodd"
         clip-rule="evenodd"
         d="m 217.376,210.841 -7.557,-0.451 0.592,10.058 8.724,-1.618 c 0,0 1.04,1.22 4.818,1.445 2.878,0.172 6.063,-1.226 7.5,-2.336 l -0.538,0.625 c -2.245,2.368 -0.668,3.439 -0.668,3.439 l 5.621,-4.005 c 0,0 0.108,-5.095 -0.536,-7.085 1.855,0.107 3.526,0.189 4.423,0.2 2.798,0.033 3.623,-1.59 3.623,-1.59 l -16.907,-4.033 c -0.147,-0.1 -0.279,-0.135 -0.392,-0.094 -1.369,0.498 -8.703,5.445 -8.703,5.445 z m 14.845,6.187 c 0.002,0.004 0.003,0.008 0.005,0.012 0,0.001 0,0.002 -0.001,0.002 l 0.007,-0.008 z"
         fill="#eecbbf"
         id="path432" />
      <path
         d="m 144.374,137.946 c 0,0 -16.42,-3.367 -19.843,16.869 -3.423,20.236 24.564,59.831 33.134,65.574 8.57,5.743 50.457,2.671 54.276,1.377 3.819,-1.295 4.462,-9.835 -0.56,-12.852 L 174.001,197.5 c 0,0 0.696,-13.269 -5.5,-28 -5.932,-14.104 -18.64,-29.654 -24.127,-31.554 z"
         fill="#4385ff"
         id="path434" />
      <path
         d="m 122.348,96.2305 c -4.326,2.3597 0.786,14.5465 4.326,13.7625"
         stroke="#000000"
         id="path436" />
      <path
         d="m 125.5,119 c -0.834,4.333 -2,10 5.5,15"
         stroke="#000000"
         id="path438" />
      <path
         d="m 92,130.5 c 2.3333,-1.5 7.5,-7.6 9.5,-20"
         stroke="#000000"
         id="path440" />
      <path
         d="m 125,156 c 1.833,18.833 18,57 34,65.5 34,3.5 58.5,2.5 55.5,-6"
         stroke="#000000"
         id="path442" />
      <path
         d="M 71.9831,265.5 C 68.4831,262 71.0816,252.746 68,240.5 61.3803,213.72 52.5001,180.744 57.4831,154 c 0,0 10.5,-23.187 51.9999,-25.901 26.25,-1.717 49.648,19.456 49.648,19.456 0,0 15.407,32.044 14.837,33.189 -0.571,1.144 -33.669,15.45 -33.669,15.45 0,0 7.989,20.656 19.402,25.806 -5.201,0 -10.218,33.5 -7.218,39.5 -17.794,4 -76.9999,7.5 -80.4999,4 z"
         fill="#4f2af5"
         id="path444" />
      <path
         d="m 391.786,359.362 c 4.752,-0.905 7.152,-0.247 7.152,4.768 0,2.99 -2.114,7.471 -3.444,10.13 -4.928,9.858 -9.862,20.047 -15.328,29.764 -4.466,7.938 -7.913,17.364 -11.025,25.923 -0.824,2.267 -2.58,7.162 -4.469,8.674 -2.328,1.862 -4.247,2.868 -6.854,4.172"
         stroke="#000000"
         stroke-linecap="round"
         stroke-linejoin="round"
         id="path446" />
      <path
         d="m 431.117,261.629 c 3.829,0 7.747,-0.761 7.747,4.172 0,3.845 -1.251,5.579 -2.979,8.939 -5.523,10.738 -14.381,19.873 -19.368,30.955 -2.332,5.181 -4.646,10.135 -6.522,15.494 -1.508,4.309 -1.714,9.24 -3.609,13.409 -1.857,4.086 -5.609,12.249 -11.025,12.249"
         stroke="#000000"
         stroke-linecap="round"
         stroke-linejoin="round"
         id="path448" />
      <path
         d="m 162.677,444.358 c 6.296,-18.147 28.243,-31.584 46.235,-20.966 3.944,2.327 7.053,6.066 10.214,9.318 2.273,2.338 2.233,3.442 3.047,-0.627 2.32,-11.602 7.76,-19.507 18.234,-25.492 9.34,-5.337 22.626,-4.565 31.495,1.12 5.253,3.367 8.077,8.13 9.722,13.978 0.236,0.838 1.579,6.933 1.658,6.899 8.434,-3.614 14.562,-1.728 21.683,3.674 4.974,3.773 14.564,15.922 10.125,22.58"
         stroke="#000000"
         stroke-linecap="round"
         stroke-linejoin="round"
         id="path450" />
    </g>
  </g>
</svg>
